<svg width="40" height="40" viewBox="0 0 40 40" fill="none" xmlns="http://www.w3.org/2000/svg">
<g clip-path="url(#clip0)">
<path d="M0.833135 39.9999C0.612244 39.9997 0.400466 39.9119 0.244273 39.7557C0.088079 39.5995 0.000229021 39.3877 0 39.1668L0 37.5005C0 37.2796 0.0877765 37.0677 0.24402 36.9114C0.400263 36.7552 0.612174 36.6674 0.833135 36.6674H39.1669C39.3878 36.6674 39.5997 36.7552 39.756 36.9114C39.9122 37.0677 40 37.2796 40 37.5005V39.1668C39.9998 39.3877 39.9119 39.5995 39.7557 39.7557C39.5995 39.9119 39.3878 39.9997 39.1669 39.9999H0.833135ZM4.11463 34.989C3.89374 34.9888 3.68196 34.9009 3.52577 34.7447C3.36958 34.5885 3.28173 34.3768 3.2815 34.1559L3.33341 32.5C3.33341 32.279 3.42118 32.0671 3.57742 31.9109C3.73367 31.7546 3.94558 31.6669 4.16654 31.6669H35.8309C35.9403 31.6669 36.0486 31.6884 36.1497 31.7303C36.2508 31.7721 36.3426 31.8335 36.42 31.9109C36.4973 31.9882 36.5587 32.0801 36.6006 32.1812C36.6424 32.2822 36.664 32.3906 36.664 32.5L36.6121 34.1559C36.6119 34.3768 36.524 34.5885 36.3678 34.7447C36.2116 34.9009 35.9998 34.9888 35.779 34.989H4.11463ZM30.8329 29.9893C30.612 29.9891 30.4002 29.9013 30.2441 29.7451C30.0879 29.5889 30 29.3771 29.9998 29.1562V17.4889C29.9992 17.3798 30.0204 17.2718 30.0622 17.1711C30.104 17.0705 30.1656 16.9792 30.2432 16.9027C30.3209 16.8261 30.413 16.7659 30.5143 16.7256C30.6156 16.6853 30.7239 16.6656 30.8329 16.6678H34.1663C34.2753 16.6656 34.3836 16.6853 34.4849 16.7256C34.5862 16.7659 34.6784 16.8261 34.756 16.9027C34.8337 16.9792 34.8952 17.0705 34.937 17.1711C34.9788 17.2718 35.0001 17.3798 34.9995 17.4889V29.1553C34.9992 29.3762 34.9114 29.588 34.7552 29.7442C34.599 29.9004 34.3872 29.9882 34.1663 29.9885L30.8329 29.9893ZM22.4998 29.9893C22.2789 29.9891 22.0672 29.9013 21.911 29.7451C21.7548 29.5889 21.6669 29.3771 21.6667 29.1562V17.4889C21.6661 17.3798 21.6873 17.2718 21.7291 17.1711C21.771 17.0705 21.8325 16.9792 21.9101 16.9027C21.9878 16.8261 22.08 16.7659 22.1812 16.7256C22.2825 16.6853 22.3908 16.6656 22.4998 16.6678H25.8332C25.9422 16.6656 26.0506 16.6853 26.1518 16.7256C26.2531 16.7659 26.3453 16.8261 26.4229 16.9027C26.5006 16.9792 26.5621 17.0705 26.6039 17.1711C26.6457 17.2718 26.667 17.3798 26.6664 17.4889V29.1553C26.6661 29.3762 26.5783 29.588 26.4221 29.7442C26.2659 29.9004 26.0541 29.9882 25.8332 29.9885L22.4998 29.9893ZM14.1668 29.9893C13.9459 29.9891 13.7341 29.9013 13.5779 29.7451C13.4217 29.5889 13.3339 29.3771 13.3336 29.1562V17.4889C13.333 17.3798 13.3543 17.2718 13.3961 17.1711C13.4379 17.0705 13.4994 16.9792 13.5771 16.9027C13.6547 16.8261 13.7469 16.7659 13.8482 16.7256C13.9494 16.6853 14.0578 16.6656 14.1668 16.6678H17.5002C17.6092 16.6656 17.7175 16.6853 17.8188 16.7256C17.92 16.7659 18.0122 16.8261 18.0899 16.9027C18.1675 16.9792 18.229 17.0705 18.2709 17.1711C18.3127 17.2718 18.3339 17.3798 18.3333 17.4889V29.1553C18.3331 29.3762 18.2452 29.588 18.089 29.7442C17.9328 29.9004 17.7211 29.9882 17.5002 29.9885L14.1668 29.9893ZM5.83368 29.9893C5.61278 29.9891 5.40101 29.9013 5.24481 29.7451C5.08862 29.5889 5.00077 29.3771 5.00054 29.1562V17.4889C4.99994 17.3798 5.02117 17.2718 5.06298 17.1711C5.10479 17.0705 5.16633 16.9792 5.24398 16.9027C5.32162 16.8261 5.4138 16.7659 5.51508 16.7256C5.61636 16.6853 5.72469 16.6656 5.83368 16.6678H9.17054C9.27953 16.6656 9.38786 16.6853 9.48914 16.7256C9.59042 16.7659 9.68259 16.8261 9.76024 16.9027C9.83789 16.9792 9.89943 17.0705 9.94124 17.1711C9.98305 17.2718 10.0043 17.3798 10.0037 17.4889V29.1553C10.0034 29.3762 9.9156 29.588 9.7594 29.7442C9.60321 29.9004 9.39143 29.9882 9.17054 29.9885L5.83368 29.9893ZM2.50027 15.0007C2.27938 15.0005 2.0676 14.9126 1.91141 14.7564C1.75521 14.6002 1.66736 14.3884 1.66714 14.1676V10.8342C1.66702 10.7247 1.68849 10.6163 1.73032 10.5152C1.77215 10.4141 1.83351 10.3222 1.9109 10.2448C1.98829 10.1674 2.08018 10.106 2.18131 10.0642C2.28244 10.0224 2.39083 10.0009 2.50027 10.001H37.4997C37.6092 10.0009 37.7176 10.0224 37.8187 10.0642C37.9198 10.106 38.0117 10.1674 38.0891 10.2448C38.1665 10.3222 38.2278 10.4141 38.2697 10.5152C38.3115 10.6163 38.333 10.7247 38.3329 10.8342V14.1676C38.3326 14.3884 38.2448 14.6002 38.0886 14.7564C37.9324 14.9126 37.7206 15.0005 37.4997 15.0007H2.50027ZM37.4997 8.32264H2.50027C2.30824 8.3231 2.12195 8.25722 1.97291 8.13614C1.82387 8.01506 1.72123 7.84621 1.68236 7.65816C1.64348 7.4701 1.67077 7.2744 1.75959 7.10415C1.84841 6.9339 1.99331 6.79955 2.16978 6.72385L19.6699 0.0665539C19.7738 0.0223156 19.8854 -0.000488281 19.9983 -0.000488281C20.1111 -0.000488281 20.2228 0.0223156 20.3266 0.0665539L37.7446 6.68492C37.9386 6.73949 38.1064 6.86252 38.2167 7.03123C38.3271 7.19994 38.3726 7.40292 38.3448 7.6026C38.3171 7.80228 38.2179 7.98515 38.0657 8.11736C37.9136 8.24958 37.7186 8.3222 37.517 8.32177L37.4997 8.32264Z" fill="url(#paint0_linear)"/>
</g>
<defs>
<linearGradient id="paint0_linear" x1="40" y1="39.9999" x2="-0.000361107" y2="6" gradientUnits="userSpaceOnUse">
<stop stop-color="#FE9654"/>
<stop offset="1" stop-color="#FD6C57"/>
</linearGradient>
<clipPath id="clip0">
<rect width="40" height="40" fill="white"/>
</clipPath>
</defs>
</svg>
