<svg width="40" height="40" viewBox="0 0 40 40" fill="none" xmlns="http://www.w3.org/2000/svg">
<path d="M36.5055 14.0037C37.811 11.0803 37.266 7.53145 34.8672 5.1327C32.4685 2.73395 28.9197 2.18917 25.9962 3.49445L22.5018 0L0 22.5018L3.49452 25.9963C2.18908 28.9197 2.73403 32.4685 5.13278 34.8673C7.53153 37.266 11.0803 37.8108 14.0038 36.5055L17.4983 40L40 17.4983L36.5055 14.0037ZM15.3994 22.0983C14.3095 23.1882 12.5426 23.1882 11.4528 22.0983C10.363 21.0085 10.363 19.2415 11.4528 18.1517C12.5426 17.0618 14.3095 17.0618 15.3994 18.1517C16.4893 19.2415 16.4893 21.0085 15.3994 22.0983ZM19.694 29.4273L17.712 10.8493L20.3058 10.5725L22.2878 29.1507L19.694 29.4273ZM28.563 21.864C27.4732 22.9538 25.7062 22.9538 24.6163 21.864C23.5265 20.7742 23.5265 19.0073 24.6163 17.9175C25.7062 16.8277 27.4732 16.8277 28.563 17.9175C29.6528 19.0073 29.6528 20.7742 28.563 21.864Z" fill="black"/>
</svg>
