<svg width="36" height="39" viewBox="0 0 36 39" fill="none" xmlns="http://www.w3.org/2000/svg">
<g clip-path="url(#clip0)">
<path d="M34.4319 0.891998C34.1382 0.554049 33.733 0.332647 33.2899 0.267998C33.0667 0.235924 32.8391 0.253435 32.6234 0.319286C32.4077 0.385138 32.2091 0.49771 32.0419 0.648998C31.9978 0.690802 31.9606 0.739421 31.9319 0.792998L23.2779 8.858L18.2129 8.509C18.128 8.50263 18.0426 8.51372 17.9621 8.54158C17.8816 8.56944 17.8077 8.61349 17.7449 8.671L16.1919 10.118L13.9029 12.239C13.8431 12.2947 13.7948 12.3616 13.7609 12.4359C13.7269 12.5103 13.7079 12.5906 13.705 12.6722C13.7021 12.7539 13.7153 12.8353 13.7438 12.9119C13.7724 12.9885 13.8157 13.0587 13.8714 13.1185C13.9271 13.1783 13.994 13.2266 14.0683 13.2605C14.1427 13.2945 14.2229 13.3135 14.3046 13.3164C14.3863 13.3193 14.4677 13.3061 14.5443 13.2776C14.6209 13.249 14.6911 13.2057 14.7509 13.15L16.5849 11.45L18.0569 13.034L16.1859 14.768C16.0651 14.8805 15.9939 15.0363 15.988 15.2012C15.9821 15.3662 16.0419 15.5267 16.1544 15.6475C16.2668 15.7683 16.4227 15.8395 16.5876 15.8454C16.7526 15.8513 16.9131 15.7914 17.0339 15.679L18.9049 13.951L20.4319 15.608L18.4319 17.479C18.3179 17.5933 18.2525 17.7472 18.2494 17.9086C18.2463 18.07 18.3058 18.2263 18.4154 18.3448C18.525 18.4634 18.6762 18.5349 18.8373 18.5444C18.9985 18.5539 19.1571 18.5008 19.2799 18.396L21.2799 16.525L22.5319 17.891L20.7039 19.591C20.5831 19.7077 20.5136 19.8676 20.5107 20.0355C20.5078 20.2035 20.5717 20.3657 20.6884 20.4865C20.8051 20.6073 20.965 20.6768 21.1329 20.6797C21.3009 20.6826 21.4631 20.6187 21.5839 20.502L23.8729 18.387L25.4259 16.94C25.4879 16.8826 25.5376 16.8132 25.572 16.736C25.6063 16.6588 25.6247 16.5755 25.6259 16.491V11.418L34.2969 3.39C34.3599 3.36448 34.4171 3.32637 34.4649 3.278C34.6273 3.12516 34.754 2.93836 34.8359 2.73094C34.9179 2.52352 34.953 2.30057 34.9389 2.078C34.9121 1.63593 34.7329 1.21681 34.4319 0.891998V0.891998ZM33.6829 2.277L33.6019 2.339L24.6019 10.685C24.5291 10.7513 24.473 10.8339 24.4383 10.926C24.4035 11.0181 24.3911 11.1171 24.4019 11.215V16.205L23.5019 17.047L17.5069 10.603L18.4069 9.767L23.4529 10.123C23.54 10.1303 23.6276 10.1191 23.7101 10.0904C23.7926 10.0616 23.8682 10.0158 23.9319 9.956L32.9209 1.603L32.9829 1.534C33.0298 1.52193 33.079 1.52193 33.1259 1.534C33.2742 1.55655 33.4095 1.63182 33.5069 1.746C33.6159 1.85208 33.6824 1.99433 33.6939 2.146C33.6964 2.1905 33.69 2.23506 33.6749 2.277H33.6829Z" fill="white" stroke="white" stroke-width="0.5"/>
<path d="M22.356 27.247C22.3576 26.6673 22.1763 26.1018 21.838 25.631L20.085 22.911C20.0281 22.8223 19.9497 22.7494 19.857 22.6993C19.7643 22.6491 19.6604 22.6232 19.555 22.624V22.624C19.4507 22.6242 19.348 22.6506 19.2565 22.7007C19.1649 22.7508 19.0874 22.8231 19.031 22.911L17.331 25.618C16.9908 26.0901 16.8094 26.6581 16.813 27.24C16.8462 27.9531 17.1529 28.6261 17.6693 29.119C18.1857 29.6119 18.8721 29.887 19.586 29.887C20.2999 29.887 20.9864 29.6119 21.5028 29.119C22.0192 28.6261 22.3259 27.9531 22.359 27.24L22.356 27.247ZM18.056 27.247C18.0524 27.0072 18.1058 26.77 18.212 26.555L19.567 24.425L20.756 26.293V26.325L20.893 26.55C21.0126 26.77 21.0749 27.0166 21.074 27.267C21.0497 27.6549 20.8784 28.019 20.5951 28.2851C20.3118 28.5512 19.9377 28.6993 19.549 28.6993C19.1604 28.6993 18.7863 28.5512 18.503 28.2851C18.2196 28.019 18.0484 27.6549 18.024 27.267L18.056 27.247Z" fill="white" stroke="white" stroke-width="0.5"/>
<path d="M27.3329 12.208C27.2558 12.2359 27.1849 12.2788 27.1244 12.3341C27.0639 12.3894 27.0148 12.4562 26.9801 12.5305C26.9453 12.6048 26.9256 12.6852 26.922 12.7671C26.9183 12.8491 26.9309 12.9309 26.9589 13.008C27.9576 15.4895 28.2574 18.1971 27.8259 20.837C27.3809 22.383 26.6088 23.8154 25.5619 25.037C24.4829 26.465 23.3719 27.944 23.3719 30.137V36.612H12.1069V33.162C12.1093 33.0671 12.0899 32.973 12.0504 32.8867C12.0108 32.8005 11.9521 32.7244 11.8788 32.6642C11.8054 32.604 11.7193 32.5614 11.6269 32.5395C11.5346 32.5177 11.4385 32.5171 11.3459 32.538C11.3089 32.538 7.77793 33.299 5.89393 31.627C3.83493 29.793 4.29393 25.121 4.30293 25.077C4.31135 24.9433 4.27652 24.8104 4.20358 24.698C4.13065 24.5857 4.02348 24.4998 3.89793 24.453L1.91393 23.704L5.65693 19.337C5.72329 19.2589 5.7694 19.1657 5.7912 19.0656C5.813 18.9655 5.80982 18.8616 5.78193 18.763C5.42753 17.3362 5.31797 15.8595 5.45793 14.396C7.03235 15.1476 8.74281 15.5721 10.4859 15.644C10.6679 15.6544 10.8454 15.7046 11.0059 15.791C11.1664 15.8774 11.306 15.9979 11.4149 16.144C11.6134 16.5026 11.7338 16.8992 11.7683 17.3076C11.8028 17.7161 11.7505 18.1272 11.6149 18.514C10.9539 21.352 12.9999 21.907 14.3529 22.257L15.0269 22.45C15.0887 22.4619 15.1522 22.4619 15.2139 22.45C15.3649 22.4571 15.5134 22.409 15.6316 22.3147C15.7497 22.2204 15.8296 22.0864 15.8563 21.9376C15.883 21.7888 15.8546 21.6354 15.7765 21.5059C15.6985 21.3765 15.576 21.2798 15.4319 21.234L14.7079 21.022C13.1549 20.604 12.4809 20.348 12.8369 18.745C13.0267 18.1832 13.0876 17.5859 13.0152 16.9974C12.9429 16.4088 12.7391 15.8441 12.4189 15.345C12.1987 15.0528 11.9169 14.8125 11.5937 14.6411C11.2704 14.4697 10.9134 14.3713 10.5479 14.353C6.80493 14.147 4.01093 12.653 3.11193 10.353C2.67807 8.79682 2.57821 7.16649 2.81893 5.569C4.57793 6.654 8.93193 8.482 16.2739 6.38C18.3748 5.76545 20.6157 5.82667 22.6799 6.555C22.757 6.58732 22.8399 6.60384 22.9235 6.60358C23.0071 6.60332 23.0898 6.58628 23.1667 6.55347C23.2436 6.52067 23.3132 6.47276 23.3713 6.41259C23.4293 6.35242 23.4747 6.28121 23.5048 6.20318C23.5348 6.12514 23.5489 6.04188 23.5462 5.9583C23.5435 5.87473 23.524 5.79255 23.489 5.71663C23.4539 5.64071 23.404 5.57259 23.3422 5.51632C23.2803 5.46004 23.2078 5.41674 23.1289 5.389C20.8125 4.55348 18.2894 4.48129 15.9289 5.183C6.98493 7.729 2.79293 4.03 2.74493 3.993C2.66303 3.91781 2.56253 3.86587 2.45383 3.84254C2.34513 3.81922 2.23217 3.82536 2.12663 3.86034C2.0211 3.89531 1.92683 3.95785 1.85356 4.04147C1.7803 4.1251 1.73072 4.22678 1.70993 4.336C1.70993 4.504 0.98593 8.391 1.93493 10.805C2.41453 11.9669 3.2247 12.9624 4.26493 13.668C4.0302 15.3676 4.10644 17.0957 4.48993 18.768L0.40393 23.568C0.33821 23.6437 0.291904 23.7343 0.26901 23.8319C0.246115 23.9296 0.247319 24.0313 0.272518 24.1283C0.297717 24.2254 0.346153 24.3149 0.413648 24.389C0.481143 24.4632 0.565668 24.5198 0.65993 24.554L3.03693 25.446C2.96193 26.818 2.96193 30.692 5.08293 32.576C6.85493 34.148 9.56193 34.054 10.8719 33.892V37.229C10.8719 37.3109 10.8881 37.3921 10.9194 37.4678C10.9508 37.5435 10.9968 37.6123 11.0547 37.6702C11.1126 37.7282 11.1814 37.7741 11.2571 37.8055C11.3328 37.8369 11.414 37.853 11.4959 37.853H23.9959C24.1614 37.853 24.3201 37.7873 24.4372 37.6702C24.5542 37.5532 24.6199 37.3945 24.6199 37.229V30.117C24.6199 28.339 25.5199 27.148 26.5599 25.75C27.7186 24.3945 28.5714 22.805 29.0599 21.09C29.8519 17.84 28.6919 14.035 28.1599 12.55C28.1291 12.4736 28.0834 12.4041 28.0256 12.3455C27.9677 12.2868 27.8988 12.2402 27.8229 12.2083C27.7469 12.1764 27.6654 12.1599 27.583 12.1597C27.5007 12.1594 27.4191 12.1755 27.3429 12.207L27.3329 12.208Z" fill="white" stroke="white" stroke-width="0.5"/>
</g>
<defs>
<clipPath id="clip0">
<rect width="35.192" height="38.108" fill="white"/>
</clipPath>
</defs>
</svg>
