<svg width="44" height="40" viewBox="0 0 44 40" fill="none" xmlns="http://www.w3.org/2000/svg">
<path d="M23.74 26.15L18.66 21.13L18.72 21.07C22.2 17.19 24.6799 12.73 26.14 8.01H32V4.00003H18V0H14V4.00003H0V7.98H22.34C20.99 11.84 18.8799 15.5 15.9999 18.7C14.1399 16.63 12.5999 14.38 11.3799 12H7.37999C8.83996 15.26 10.84 18.34 13.34 21.12L3.16997 31.17L6 34L16 24L22.22 30.22L23.74 26.15Z" fill="black"/>
<path d="M35 16H31L22 40H26L28.25 34H37.75L40 40H44L35 16ZM29.75 30L33.0001 21.33L36.2501 30H29.75Z" fill="black"/>
</svg>
