<svg width="35" height="40" viewBox="0 0 35 40" fill="none" xmlns="http://www.w3.org/2000/svg">
<g clip-path="url(#clip0)">
<path fill-rule="evenodd" clip-rule="evenodd" d="M29.0928 3.01601C27.2262 0.9049 23.8484 6.78868e-06 19.5328 6.78868e-06H6.9995C6.57386 -0.0011645 6.1617 0.149265 5.83691 0.424377C5.51211 0.699489 5.29591 1.08132 5.22704 1.50136L0.00926971 34.328C-0.015077 34.4814 -0.00559603 34.6383 0.0369932 34.7877C0.0795825 34.937 0.154264 35.0753 0.255852 35.1928C0.357439 35.3103 0.483448 35.4042 0.625101 35.4679C0.766753 35.5317 0.92063 35.5637 1.07595 35.5618H8.80929L10.7524 23.3369L10.6919 23.7191C10.7606 23.3 10.9764 22.9191 11.3006 22.6448C11.6248 22.3705 12.0361 22.2207 12.4608 22.2222H16.1364C23.3586 22.2222 29.0119 19.312 30.6644 10.8951C30.7133 10.6454 30.7924 10.1662 30.7924 10.1662C31.2609 7.04713 30.7888 4.93334 29.0928 3.01601Z" fill="#003087"/>
<path fill-rule="evenodd" clip-rule="evenodd" d="M32.7507 11.7563C30.9543 20.0435 25.2263 24.4301 16.1365 24.4301H12.8405L10.3818 39.9999H15.7276C16.1 40.001 16.4606 39.8693 16.7447 39.6285C17.0288 39.3878 17.2178 39.0537 17.2778 38.6861L17.3409 38.3563L18.5703 30.6292L18.6494 30.2026C18.709 29.8352 18.8977 29.5011 19.1815 29.2603C19.4653 29.0195 19.8256 28.8878 20.1978 28.8888H21.1756C27.4921 28.8888 32.4387 26.343 33.8867 18.9804C34.4627 16.0257 34.1845 13.5492 32.7507 11.7563Z" fill="#3AA3E7"/>
</g>
<defs>
<clipPath id="clip0">
<rect width="34.1662" height="40" fill="white"/>
</clipPath>
</defs>
</svg>
