<svg width="36" height="24" viewBox="0 0 36 24" fill="none" xmlns="http://www.w3.org/2000/svg">
<g clip-path="url(#clip0)">
<path d="M15.2371 22.151C19.3351 22.151 22.6571 18.8289 22.6571 14.731C22.6571 10.633 19.3351 7.311 15.2371 7.311C11.1392 7.311 7.81714 10.633 7.81714 14.731C7.81714 18.8289 11.1392 22.151 15.2371 22.151Z" stroke="white" stroke-width="2" stroke-linecap="round" stroke-linejoin="round"/>
<path d="M15.2372 17.204C16.603 17.204 17.7102 16.0968 17.7102 14.731C17.7102 13.3652 16.603 12.258 15.2372 12.258C13.8714 12.258 12.7642 13.3652 12.7642 14.731C12.7642 16.0968 13.8714 17.204 15.2372 17.204Z" stroke="white" stroke-width="2" stroke-linecap="round" stroke-linejoin="round"/>
<path d="M28.6851 13.362C28.8762 13.5351 29.0288 13.7463 29.1333 13.982C29.2378 14.2177 29.2917 14.4727 29.2917 14.7305C29.2917 14.9883 29.2378 15.2433 29.1333 15.479C29.0288 15.7146 28.8762 15.9259 28.6851 16.099C26.3171 18.246 21.1851 22.146 15.2381 22.146C9.29114 22.146 4.15914 18.246 1.79214 16.099C1.60112 15.9259 1.44846 15.7146 1.34399 15.479C1.23952 15.2433 1.18555 14.9883 1.18555 14.7305C1.18555 14.4727 1.23952 14.2177 1.34399 13.982C1.44846 13.7463 1.60112 13.5351 1.79214 13.362C4.15914 11.218 9.29214 7.31 15.2381 7.31C21.1841 7.31 26.3171 11.219 28.6851 13.362Z" stroke="white" stroke-width="2" stroke-linecap="round" stroke-linejoin="round"/>
<path d="M1.18506 14.194C3.08506 5.216 13.2331 2.256 21.1971 4.294C23.8251 4.967 26.7441 6.926 29.1781 4.653C29.6654 4.18938 30.0346 3.61582 30.2548 2.98029C30.4751 2.34477 30.54 1.66574 30.4441 1C32.3861 2.243 34.2721 4.259 34.4381 6.679C34.6631 9.963 31.7381 12.519 29.2901 14.194" stroke="white" stroke-width="2" stroke-linecap="round" stroke-linejoin="round"/>
<path d="M16.6721 7.311C16.6721 7.311 22.9811 7.311 20.6871 2.149" stroke="white" stroke-width="2" stroke-linecap="round" stroke-linejoin="round"/>
<path d="M21.26 8.458C21.26 8.458 26.996 9.605 24.701 3.296" stroke="white" stroke-width="2" stroke-linecap="round" stroke-linejoin="round"/>
<path d="M26.4221 11.325C26.4221 11.325 31.5841 10.178 28.1431 3.295" stroke="white" stroke-width="2" stroke-linecap="round" stroke-linejoin="round"/>
</g>
<defs>
<clipPath id="clip0">
<rect width="35.451" height="23.151" fill="white"/>
</clipPath>
</defs>
</svg>
