<svg width="35" height="42" viewBox="0 0 35 42" fill="none" xmlns="http://www.w3.org/2000/svg">
<path fill-rule="evenodd" clip-rule="evenodd" d="M6.49708 19.244V30.269C5.34527 31.2422 4.11621 32.1201 2.82207 32.894C2.45361 33.1312 2.14024 33.4445 1.90308 33.813V5.331C1.90308 -0.444002 10.6971 -0.444002 10.6971 5.331V16.75L6.49708 19.244Z" stroke="white" stroke-width="2"/>
<path d="M26.3161 8.875C26.9928 8.06206 27.9562 7.54052 29.0069 7.4184C30.0576 7.29628 31.1149 7.58293 31.9601 8.21899C32.7738 8.86608 33.2992 9.80821 33.422 10.8406C33.5448 11.8729 33.2552 12.912 32.6161 13.732C32.6161 13.863 17.7851 32.895 7.02206 39.589C6.59289 39.8703 6.11187 40.063 5.60721 40.1559C5.10255 40.2488 4.58442 40.24 4.08322 40.13C3.58201 40.02 3.10781 39.811 2.68844 39.5153C2.26908 39.2196 1.91299 38.8432 1.64106 38.408C1.07249 37.5187 0.877612 36.441 1.09872 35.4088C1.31982 34.3767 1.93907 33.4734 2.82206 32.895C12.4041 26.857 26.3161 9.006 26.3161 8.875Z" stroke="white" stroke-width="2"/>
<path d="M28.8101 13.338C29.3177 13.338 29.7291 12.9265 29.7291 12.419C29.7291 11.9115 29.3177 11.5 28.8101 11.5C28.3026 11.5 27.8911 11.9115 27.8911 12.419C27.8911 12.9265 28.3026 13.338 28.8101 13.338Z" fill="white" stroke="white"/>
<path d="M5.44708 36.701C5.95463 36.701 6.36608 36.2895 6.36608 35.782C6.36608 35.2744 5.95463 34.863 5.44708 34.863C4.93953 34.863 4.52808 35.2744 4.52808 35.782C4.52808 36.2895 4.93953 36.701 5.44708 36.701Z" fill="white" stroke="white"/>
</svg>
