<svg width="4267" height="2667" viewBox="0 0 4267 2667" fill="none" xmlns="http://www.w3.org/2000/svg">
<path d="M367.486 2365.49C367.486 2365.49 26.7479 1847.25 399.656 1286.19C730.524 788.371 1252.56 1184.22 1548.37 677.67C1951.76 -13.1134 3964.91 256.653 3709.96 1319.45C3586.56 1833.77 4269.91 1852.47 4015.72 2366.59L367.486 2365.49" fill="#EBF3FA"/>
<path d="M2910.73 1329.91C2910.73 1329.91 2849.2 1248.32 2914.56 1203.01C2914.56 1203.01 2961.78 1178.31 2998.73 1182.86C2998.73 1182.86 2940.67 1267.73 2957.12 1277.57C2973.59 1287.39 3015.02 1178.33 3015.02 1178.33C3015.02 1178.33 3119.19 1174.75 3151.49 1192.84C3151.49 1192.84 3058.46 1259.76 3076.83 1265.23C3095.2 1270.71 3195.25 1205.58 3195.25 1205.58C3195.25 1205.58 3290.6 1228 3281.78 1286.46C3273 1344.93 3238.64 1361.01 3224.14 1358.53C3209.65 1356.07 3126.31 1318.14 3123.71 1329.98C3121.08 1341.83 3170.04 1384.12 3205.91 1388.19C3205.91 1388.19 3133.3 1458.88 3089.49 1434.44C3045.68 1409.99 3043.97 1375.47 3016.63 1360.85C2989.28 1346.24 2965.26 1344.77 2976.06 1358.61C2986.86 1372.45 3037 1388.37 3051.32 1417.85C3065.65 1447.33 3078.87 1467.44 3032.6 1457.49C2986.31 1447.55 2912.52 1408.61 2911.64 1369.27C2910.73 1329.91 2910.73 1329.91 2910.73 1329.91" fill="#82B378"/>
<path d="M3234.33 1285.09C3234.33 1285.09 2973.21 1258.66 2910.74 1329.91C2910.74 1329.91 2895.56 1367.4 2854.05 1399.81L2846.89 1416.13C2846.89 1416.13 2895.2 1371.15 2911.63 1369.27C2911.63 1369.27 2892.05 1274.94 3234.33 1285.09" fill="#82B378"/>
<path d="M2854.05 1399.81C2854.05 1399.81 2795.27 1437.85 2786.73 1511.85L2796.89 1513.4C2796.89 1513.4 2819.62 1437.75 2853.93 1409.76C2888.23 1381.76 2854.05 1399.81 2854.05 1399.81Z" fill="#82B378"/>
<path d="M2608.77 1134.85C2608.77 1134.85 2472.32 1058.43 2536 954.709C2536 954.709 2586.93 891.025 2641.52 874.648C2641.52 874.648 2612.41 1029.31 2641.52 1032.95C2670.65 1036.59 2661.54 858.272 2661.54 858.272C2661.54 858.272 2805.27 789.129 2861.69 794.586C2861.69 794.586 2772.54 945.613 2801.65 941.973C2830.76 938.334 2930.85 785.489 2930.85 785.489C2930.85 785.489 3078.23 758.196 3101.87 845.534C3125.54 932.875 3087.32 976.546 3065.48 982.003C3043.66 987.462 2903.55 985.643 2907.17 1003.84C2910.83 1022.03 3005.44 1051.15 3058.19 1034.77C3058.19 1034.77 2999.98 1178.52 2923.56 1171.24C2847.13 1163.96 2823.49 1116.65 2776.17 1113.01C2728.86 1109.37 2694.29 1122.11 2717.95 1134.85C2741.59 1147.58 2821.67 1139.02 2859.87 1171.51C2898.08 1203.99 2929.01 1224.01 2858.06 1238.56C2787.1 1253.12 2659.72 1244.02 2634.25 1189.44C2608.77 1134.85 2608.77 1134.85 2608.77 1134.85Z" fill="#A8D29F"/>
<path d="M3034.54 872.836C3034.54 872.836 2652.43 996.567 2608.77 1134.85C2608.77 1134.85 2610.58 1196.72 2572.36 1267.68V1294.98C2572.36 1294.98 2612.4 1202.18 2634.24 1189.44C2634.24 1189.44 2548.71 1069.35 3034.54 872.836Z" fill="#82B378"/>
<path d="M2572.38 1267.68C2572.38 1267.68 2513.46 1357.16 2547.04 1466.09L2562.2 1462.01C2562.2 1462.01 2547.49 1342.04 2578.32 1281.7C2609.15 1221.36 2572.38 1267.68 2572.38 1267.68" fill="#82B378"/>
<path d="M1889.12 1174.01C1889.12 1174.01 2047.93 1106.8 1990.71 985.427C1990.71 985.427 1942.6 909.467 1884.76 884.907C1884.76 884.907 1897.92 1057.92 1865.57 1058.39C1833.23 1058.84 1864.81 864.534 1864.81 864.534C1864.81 864.534 1715.67 771.334 1653.19 770.48C1653.19 770.48 1732.59 946.787 1701.13 939.28C1669.67 931.76 1578.52 752.134 1578.52 752.134C1578.52 752.134 1420.32 704.36 1383.81 797.214C1347.31 890.054 1383.88 942.547 1407.15 951.174C1430.41 959.8 1584.17 974.787 1577.99 994.28C1571.79 1013.77 1464.57 1034.21 1408.73 1009.88C1408.73 1009.88 1455.12 1174.45 1539.75 1175.75C1624.37 1177.03 1656.03 1128.05 1708.32 1129.8C1760.6 1131.55 1796.95 1149.69 1769.48 1160.79C1742.01 1171.88 1655.32 1152.79 1609.51 1183.76C1563.69 1214.72 1527.37 1232.91 1603.37 1257.47C1679.37 1282.01 1820.05 1287.48 1854.59 1230.75C1889.12 1174.01 1889.12 1174.01 1889.12 1174.01Z" fill="#A8D29F"/>
<path d="M1454.28 835.28C1454.28 835.28 1858.03 1017.17 1889.12 1174.01C1889.12 1174.01 1879.63 1241.59 1912.91 1323.99L1909.59 1353.89C1909.59 1353.89 1876.97 1247.35 1854.59 1230.75C1854.59 1230.75 1962.85 1109.51 1454.28 835.28" fill="#82B378"/>
<path d="M1912.91 1323.99C1912.91 1323.99 1966.63 1429.19 1916.61 1544.49L1900.49 1538.19C1900.49 1538.19 1931.16 1408.49 1904.69 1338.63C1878.21 1268.77 1912.91 1323.99 1912.91 1323.99Z" fill="#82B378"/>
<path d="M1563.37 1564.05C1535.31 1523.57 1532.19 1485.87 1532.19 1485.87C1532.19 1485.87 1609.84 1430.11 1564.05 1371.48C1564.05 1371.48 1528.76 1336.28 1494.48 1330.08C1494.48 1330.08 1522.75 1422.01 1505.32 1426.23C1487.88 1430.43 1481.2 1321.49 1481.2 1321.49C1481.2 1321.49 1389.16 1289.33 1355.28 1296.52C1355.28 1296.52 1419.76 1382.15 1401.84 1381.92C1383.91 1381.71 1312.66 1295.72 1312.66 1295.72C1312.66 1295.72 1221.27 1289.23 1212.88 1343.89C1204.49 1398.56 1230.69 1422.47 1244.33 1424.29C1257.96 1426.12 1342.93 1415.43 1341.97 1426.72C1341 1438.03 1285.53 1462.17 1252.36 1455.84C1252.36 1455.84 1297.56 1539.17 1343.48 1529.52C1389.4 1519.87 1400.53 1489.51 1429.01 1484.07C1457.49 1478.61 1479.37 1483.99 1465.87 1493.35C1452.37 1502.69 1403.16 1502.97 1382.17 1525.32C1361.2 1547.67 1343.77 1561.93 1387.88 1565.92C1431.97 1569.91 1508.71 1555.67 1520.44 1520.77C1520.96 1519.24 1521.44 1517.8 1521.91 1516.4C1521.28 1519.25 1520.44 1520.77 1520.44 1520.77C1528.92 1524.51 1543.33 1545.28 1553.52 1561.32C1555.03 1564.08 1557.35 1567.87 1560.72 1572.97H1560.73C1562.13 1575.31 1563.25 1577.21 1564.03 1578.55C1583.51 1614.84 1582.85 1681.4 1582.85 1681.4L1592.35 1682.83C1605.29 1614.37 1563.37 1564.05 1563.37 1564.05" fill="#82B378"/>
<path d="M1044.35 632.08C1043.59 627.893 1033.73 582.933 964.18 590.6C964.18 590.6 998.8 589.72 1006.85 603.827C1006.85 603.827 980.997 588.707 962.989 597.387C944.981 606.067 938.696 640.747 940.164 651.627C941.632 662.52 957.203 696.053 969.612 697.293C974.312 697.773 979.493 696.707 984.12 695.213C981.656 700.64 979.329 706.587 977.233 713.147C957.845 773.84 994.365 825.107 1016.86 815.6C1031.28 809.493 1039.23 834.467 1039.23 834.467L1167.79 695.4C1167.79 695.4 1098.21 592.453 1044.35 632.08Z" fill="#2C3A64"/>
<path d="M1211.82 2307.04L1180.56 2318.68C1180.56 2318.68 1044.76 2130.35 1028.04 1964.63C1025.05 1935.04 1026.05 1906.39 1032.51 1879.91C1032.51 1879.91 1031.18 1872.33 1028.86 1858.93C1027.78 1852.68 1026.46 1845.15 1024.95 1836.52C1020.53 1811.23 1014.46 1776.61 1007.52 1737.2C991.537 1646.51 970.836 1530.57 954.755 1445.33L963.179 1442.63L1054.33 1413.23L1073.17 1353.4L1141.04 1335.53C1141.04 1335.53 1156.2 1365.19 1169.76 1505.29C1172.26 1523.68 1174.53 1543.95 1176.24 1565.92C1181.52 1633 1181.91 1716.21 1169.78 1811.35C1166.67 1835.71 1162.74 1860.84 1157.86 1886.68C1154.29 1905.61 1153.75 1931.43 1155.26 1961.05C1162.1 2096.52 1211.82 2307.04 1211.82 2307.04" fill="#2B478B"/>
<path d="M1176.24 1565.92L1028.86 1858.93C1027.78 1852.68 1026.46 1845.15 1024.95 1836.52C1020.53 1811.23 1014.46 1776.61 1007.52 1737.2C991.537 1646.51 970.836 1530.57 954.755 1445.33L963.179 1442.63L1054.33 1413.23L1073.17 1353.4L1141.04 1335.53C1141.04 1335.53 1156.2 1365.19 1169.76 1505.29C1172.26 1523.68 1174.53 1543.95 1176.24 1565.92" fill="#233862"/>
<path d="M1111.4 1373.13L1107.99 1343.87C1050.83 1359.05 898.103 1301.44 898.103 1301.44C898.103 1301.44 842.727 1350.12 849.997 1466.8C853.547 1523.75 860.028 1765.76 866.799 1837.36C869.245 1863.32 871.389 1881.79 872.264 1889.17L872.281 1889.24C872.551 1891.49 871.764 1893.61 870.62 1895.59C860.653 1912.49 852.4 1930.11 845.631 1948.13C779.181 2125.21 855.865 2343.28 855.865 2343.28L875.765 2335.25C875.765 2335.25 919.404 2092.57 954.861 1985.36C960.881 1967.17 966.651 1952.88 971.939 1944.35C987.355 1919.47 1001.66 1878.81 1014.65 1830.45C1039.19 1739.03 1058.95 1620.11 1072.09 1528.31C1073.91 1528.39 1111.4 1373.13 1111.4 1373.13" fill="#2B478B"/>
<path d="M1203.57 1138.6C1204.68 1139.76 1205.77 1140.89 1207.09 1141.96C1255.94 1187.49 1321.74 1227.75 1356.95 1236.61C1380.09 1242.53 1431.15 1234.6 1473.55 1225.88C1501.79 1220.32 1526.39 1214.15 1536.53 1211.75C1539.76 1210.99 1541.57 1210.41 1541.57 1210.41L1537.15 1181.83C1537.15 1181.83 1511.73 1179.81 1480.16 1176.25C1436.19 1171.08 1380.44 1163.15 1366.16 1154.71C1333.04 1135.03 1274.92 1052.48 1228.3 1000.59C1225.85 997.76 1223.43 995.04 1221.03 992.373C1219.27 990.413 1217.52 988.507 1215.78 986.627C1215.42 986.267 1214.98 985.64 1214.4 985.333C1212.26 983.267 1210.43 981.347 1208.67 979.667C1208.61 979.467 1208.3 979.307 1208 979.133C1199.72 970.813 1185.18 960.707 1185.18 960.707C1177.04 956.067 1170.33 955.173 1165.6 959.133C1165.6 959.133 1159.51 965.08 1153.53 976.333C1152.26 978.68 1151.01 981.28 1149.82 984.093C1148.83 985.64 1148.35 987.28 1147.86 988.933C1143.91 999.307 1141.03 1012.36 1141.55 1027.56C1141.91 1039.08 1144.11 1051.79 1149.22 1065.8C1157.37 1088.79 1177.95 1114.36 1203.57 1138.6" fill="#FFB27D"/>
<path d="M1161.03 1018.03C1144.46 1028.84 1123.83 1037.56 1098.09 1042.75C1001.61 1062.19 967.161 980.134 954.933 924.134C968.216 917.027 980.561 915.72 987.691 915.067C994.641 914.454 1001.94 914.107 1007.99 913.987C1018.98 906.04 1035.97 872.747 1040.99 820.467L1045.47 821.8L1120.43 844.614C1120.43 844.614 1116.3 868.52 1113.96 891.174C1112.15 908.894 1111.46 925.867 1114.71 930.12C1120.57 931.56 1124.08 932.494 1124.08 932.494L1124.12 932.56C1125.09 934.254 1145.99 970.92 1161.03 1018.03" fill="#FFB27D"/>
<path d="M1194.61 1078.29C1194.17 1080.36 1193.63 1082.36 1193.03 1084.44C1176.1 1141.07 1162.4 1367.43 1162.4 1367.43C1171.37 1395.72 1006.88 1401.52 916.164 1388.44C883.178 1383.71 859.952 1376.47 858.356 1366.91C842.125 1330.32 881.844 1261.99 904.78 1227.25C907.664 1222.89 910.134 1218.31 912.174 1213.55C917.36 1201.6 919.861 1188.59 919.338 1175.47C918.648 1157.52 917.114 1140.09 915.242 1123.77C911.729 1092.99 907.034 1066.11 904.581 1047.08V1047.07C909.352 1042.32 914 1037.92 918.327 1033.73C924.923 1027.28 930.706 1021.31 934.773 1015.51C939.237 1009.19 941.722 1003.01 941.169 996.547C940.74 991.653 939.865 986.693 938.638 981.8C938.07 979.48 937.426 977.187 936.736 974.88C929.372 950.747 915.81 929.867 915.81 929.867C940.372 915.507 987.686 915.067 987.686 915.067C987.686 915.067 988.008 917.653 988.606 921.88C990.908 938.84 997.381 982.347 1004.01 989.787C1012.29 999.08 1143.11 1025.97 1147.67 1011.09C1152.15 996.467 1125.13 934.907 1124.12 932.573L1124.09 932.494C1165.99 942.454 1184.18 953.707 1185.01 954.373L1184.96 954.36C1162.23 974.267 1206.55 1024.04 1194.61 1078.29" fill="#FECA73"/>
<path d="M1120.44 844.614C1120.44 844.614 1116.29 868.52 1113.97 891.187C1071.29 885.694 1052.57 844.387 1045.47 821.814L1120.44 844.614Z" fill="#CBA76B"/>
<path d="M1132.58 867.521C1132.58 867.521 1031.15 859.054 1037.39 795.974C1043.64 732.881 1034.76 689.307 1099.78 692.041C1164.81 694.787 1174.99 720.094 1178.02 741.667C1181.06 763.227 1159.13 868.094 1132.58 867.521Z" fill="#FFB27D"/>
<path d="M1178.52 706.294C1164.77 685.747 1152.53 688.734 1145.33 693.774C1093.02 657.8 1052.85 699.214 1052.85 699.214C1041.55 743.8 1006.31 766.454 1006.31 766.454C1006.31 766.454 1023.63 779.707 1067.28 773.027C1080.61 770.987 1093.14 762.907 1104.12 752.694C1084.01 779.827 1058.49 798.28 1058.49 798.28C1111.67 779.88 1139.16 711.227 1141.94 703.96C1147.57 710.134 1158.54 723.414 1161.08 735.6C1164.52 752.16 1163.47 785.467 1173.23 785.307C1173.23 785.307 1199.15 737.094 1178.52 706.294" fill="#2C3A64"/>
<path d="M1631.08 1178.05C1620.93 1187.72 1610.67 1211.88 1579.43 1211.43C1557.15 1211.24 1534.57 1213.75 1523.65 1215.09C1519.4 1215.83 1516.92 1216.13 1516.92 1216.13L1515.81 1180.73C1515.81 1180.73 1516.27 1180.79 1517.28 1180.61C1524.83 1179.48 1563.15 1173.59 1578.32 1163.52C1595.36 1152.11 1635.17 1162.69 1635.17 1162.69C1635.17 1162.69 1641.29 1168.57 1631.08 1178.05" fill="#FFB27D"/>
<path d="M971.559 2359.53H814.088C814.088 2359.53 810.315 2335.53 818.54 2317.33C826.42 2299.85 838.765 2291.92 835.809 2270.77C845.815 2281.08 862.124 2292.61 884.889 2289.56C887.679 2294.08 902.895 2318.28 912.212 2324.97C922.503 2332.36 968.389 2329.73 971.559 2359.53" fill="#233862"/>
<path d="M1309.67 2359.53H1152.2C1152.2 2359.53 1146.31 2334.41 1156.65 2317.33C1165.8 2302.2 1162.29 2293.59 1155.51 2281.08C1162.65 2284 1171.88 2286.65 1182.04 2286.08C1189.88 2285.63 1198.18 2282.07 1205.45 2277.84C1212.23 2285.56 1241.25 2318.45 1250.32 2324.97C1260.61 2332.36 1306.5 2329.73 1309.67 2359.53" fill="#233862"/>
<path d="M1108.39 831.04C1108.39 831.04 1109.81 839.387 1130.36 839.414C1130.36 839.414 1147.62 839.427 1147.66 830.347C1147.66 830.347 1131.4 822.867 1108.39 831.04Z" fill="white"/>
<path d="M937.657 1232.01C931.428 1271.47 902.893 1350.63 916.164 1388.44C883.178 1383.71 859.952 1376.47 858.356 1366.91C842.125 1330.32 881.844 1261.99 904.78 1227.25C907.664 1222.89 910.134 1218.31 912.174 1213.55C917.36 1201.6 919.861 1188.59 919.338 1175.47C918.648 1157.52 917.114 1140.09 915.242 1123.77C915.242 1123.77 944.284 1190.08 937.657 1232.01" fill="#CBA76B"/>
<path d="M1160.56 965.814C1161.65 1000.88 1187.01 1097.15 1193.03 1084.44C1199.9 1069.95 1226.53 1014.85 1239.04 1012.83C1238.38 1010.28 1187.19 953.694 1184.96 954.347C1184.96 954.347 1171.05 958.587 1160.56 965.814" fill="#FECA73"/>
<path d="M919.101 1463.25L892.977 1480.64C892.977 1480.64 886.368 1472.39 875.901 1459.17C872.774 1455.2 871.098 1452.8 871.098 1452.8C862.816 1442.13 853.19 1429.04 842.664 1414.85L842.486 1414.68C824.844 1389.91 805.466 1361.72 790.636 1336.24C780.33 1318.19 772.306 1301.45 768.386 1288.31C767.954 1287 767.718 1285.84 767.45 1284.35C759.782 1251 773.846 1184.8 796.232 1120.2C799.305 1111.28 802.556 1102.49 805.661 1093.89C817.569 1062.21 830.95 1032.45 844.392 1008.39C852.272 993.92 860.128 981.307 867.697 971.894C870.321 968.534 872.788 965.347 875.456 962.64C876.898 961.014 878.341 959.427 879.762 957.92C895.454 959.254 928.377 965.467 952.81 993.694C952.394 995.174 951.96 996.653 951.516 998.173C941.636 1030.04 926.378 1069.15 910.565 1107.47C901.96 1128.52 893.158 1149.41 885.452 1169.07C880.564 1180.81 876.14 1192.01 872.149 1202.35C864.63 1222.16 859.049 1238.64 856.83 1250.19C855.329 1257.68 857.469 1271.79 861.514 1289.12C868.45 1319.32 881.653 1360 893.921 1394.55C898.94 1408.96 903.881 1422.37 908.009 1433.49C914.614 1451.49 919.101 1463.25 919.101 1463.25" fill="#FFB27D"/>
<path d="M930.523 1093.43C904.429 1054.04 829.64 1037.09 829.64 1037.09C871.841 903.187 982.637 915.601 982.637 915.601C982.637 915.601 942.332 1054.91 930.523 1093.43" fill="#FECA73"/>
<path d="M892.977 1480.64C892.977 1480.64 899.84 1490.77 900.607 1498.05C901.375 1505.35 907.895 1529.51 916.332 1537.19C924.771 1544.85 943.947 1560.2 946.632 1557.89C949.316 1555.59 957.085 1537.51 949.884 1524.72C946.633 1518.95 942.221 1502.85 936.404 1498.96C929.344 1494.23 919.101 1463.25 919.101 1463.25L892.977 1480.64" fill="#FFB27D"/>
<path d="M919.208 1467.19C919.208 1467.19 939.984 1477.73 942.796 1486.17C945.609 1494.61 957.217 1511.63 956.028 1513.6C954.755 1515.71 936.693 1504.19 930.556 1493.71C924.419 1483.23 919.208 1467.19 919.208 1467.19Z" fill="#FFB27D"/>
<path d="M1413.59 1369.05L2174.39 913.591C2216.33 888.472 2268.7 888.472 2310.66 913.591L3071.46 1369.05V2111.4L1413.59 2028.28V1369.05" fill="#CBA76B"/>
<path d="M2928.76 2226.23H1556.29V1040.14H2928.76V2226.23Z" fill="#FCECDB"/>
<path d="M1598.19 1091.89C1598.19 1084.09 1604.51 1077.79 1612.29 1077.79C1620.09 1077.79 1626.41 1084.09 1626.41 1091.89C1626.41 1099.68 1620.09 1106 1612.29 1106C1604.51 1106 1598.19 1099.68 1598.19 1091.89Z" fill="#EFCBAB"/>
<path d="M2857.81 1091.89C2857.81 1084.09 2864.13 1077.78 2871.92 1077.78C2879.71 1077.78 2886.03 1084.09 2886.03 1091.89C2886.03 1099.68 2879.71 1106 2871.92 1106C2864.13 1106 2857.81 1099.68 2857.81 1091.89Z" fill="#EFCBAB"/>
<path d="M2871.91 1093.43H1612.29V1090.36H2871.91V1093.43Z" fill="#EFCBAB"/>
<path d="M1610.76 2345.89V1086.28H1613.83V2345.89H1610.76Z" fill="#EFCBAB"/>
<path d="M2870.86 2345.89V1086.28H2873.93V2345.89H2870.86" fill="#EFCBAB"/>
<path d="M3071.46 1367.01V2359.53H1413.59V1367.01L2242.53 1863.28L3071.46 1367.01Z" fill="#FECA73"/>
<path d="M1413.59 2359.53L2172.94 1815.13C2214.53 1785.31 2270.51 1785.31 2312.1 1815.13L3071.46 2359.53H1413.59Z" fill="#CBA76B"/>
<path d="M2495.59 1204.46H1995.2C1987.93 1204.46 1981.97 1198.51 1981.97 1191.25C1981.97 1183.98 1987.93 1178.03 1995.2 1178.03H2495.59C2502.87 1178.03 2508.81 1183.98 2508.81 1191.25C2508.81 1198.51 2502.87 1204.46 2495.59 1204.46Z" fill="#EFCBAB"/>
<path d="M2624.47 1257.47H1866.29C1859.02 1257.47 1853.08 1251.53 1853.08 1244.26C1853.08 1236.99 1859.02 1231.05 1866.29 1231.05H2624.47C2631.75 1231.05 2637.69 1236.99 2637.69 1244.26C2637.69 1251.53 2631.75 1257.47 2624.47 1257.47Z" fill="#EFCBAB"/>
<path d="M2526.15 1421.88H1977.58C1972.32 1421.88 1968.03 1417.58 1968.03 1412.32C1968.03 1407.07 1972.32 1402.76 1977.58 1402.76H2526.15C2531.41 1402.76 2535.71 1407.07 2535.71 1412.32C2535.71 1417.58 2531.41 1421.88 2526.15 1421.88Z" fill="#EFCBAB"/>
<path d="M2032.67 1471.8H1877.99C1872.73 1471.8 1868.43 1467.49 1868.43 1462.24C1868.43 1456.99 1872.73 1452.68 1877.99 1452.68H2032.67C2037.92 1452.68 2042.23 1456.99 2042.23 1462.24C2042.23 1467.49 2037.92 1471.8 2032.67 1471.8Z" fill="#EFCBAB"/>
<path d="M2265.94 1471.8H2079.07C2073.81 1471.8 2069.52 1467.5 2069.52 1462.24C2069.52 1456.99 2073.81 1452.68 2079.07 1452.68H2265.94C2271.19 1452.68 2275.5 1456.99 2275.5 1462.24C2275.5 1467.5 2271.19 1471.8 2265.94 1471.8Z" fill="#EFCBAB"/>
<path d="M2625.74 1471.81H2302.68C2297.43 1471.81 2293.13 1467.5 2293.13 1462.24C2293.13 1456.99 2297.43 1452.68 2302.68 1452.68H2625.74C2631 1452.68 2635.3 1456.99 2635.3 1462.24C2635.3 1467.5 2631 1471.81 2625.74 1471.81Z" fill="#EFCBAB"/>
<path d="M2267.19 1529.84H1966.7C1961.45 1529.84 1957.16 1525.54 1957.16 1520.28C1957.16 1515.02 1961.45 1510.72 1966.7 1510.72H2267.19C2272.44 1510.72 2276.74 1515.02 2276.74 1520.28C2276.74 1525.54 2272.44 1529.84 2267.19 1529.84" fill="#EFCBAB"/>
<path d="M2537.04 1529.84H2300.38C2295.13 1529.84 2290.83 1525.55 2290.83 1520.28C2290.83 1515.03 2295.13 1510.72 2300.38 1510.72H2537.04C2542.29 1510.72 2546.6 1515.03 2546.6 1520.28C2546.6 1525.55 2542.29 1529.84 2537.04 1529.84Z" fill="#EFCBAB"/>
<path d="M2275.01 1719.8C2272.05 1714.25 2276.29 1707.41 2281.14 1702.89C2279.24 1708.57 2277.19 1714.22 2275.01 1719.8ZM2266.08 1638.49C2266.01 1635.67 2267.5 1630.52 2270.74 1630.57C2269.28 1633.75 2267.78 1636.89 2266.18 1640C2266.13 1639.49 2266.1 1638.99 2266.08 1638.49ZM2351.58 1647.87C2333.5 1662.87 2314.17 1675.37 2293.79 1686.79C2295.51 1681.39 2296.96 1675.79 2296.69 1670.79C2296.32 1663.91 2290.84 1660.89 2285.35 1658.04C2283.99 1657.33 2282.72 1656.59 2281.46 1655.84C2283.58 1653.75 2284.68 1650.85 2283.28 1647.68C2280.96 1642.48 2274.45 1643.32 2272.25 1648.13C2271.84 1649.03 2271.6 1649.89 2271.51 1650.75C2270.61 1650.28 2269.95 1649.77 2269.35 1649.05C2272.7 1642.8 2275.87 1636.44 2278.78 1629.93C2279.43 1628.47 2278.6 1626.73 2277.42 1625.85C2272.58 1622.22 2266 1623.39 2262.12 1627.96C2257.51 1633.39 2258.68 1641.64 2260.89 1647.8C2261.04 1648.24 2261.22 1648.67 2261.39 1649.09C2257.12 1656.79 2252.47 1664.28 2247.51 1671.56C2247.05 1671.09 2246.57 1670.63 2246.1 1670.16C2244.82 1668.91 2243.43 1667.28 2242.22 1665.49C2244.51 1659.56 2245.96 1653.33 2246.51 1646.84C2246.74 1643.95 2243.85 1642.52 2241.44 1643.41C2234.74 1645.89 2231.14 1652.69 2232 1659.69C2232.31 1662.09 2233.08 1664.39 2234.19 1666.51C2232.68 1669.75 2230.92 1672.89 2228.82 1675.92C2227.46 1677.88 2228.44 1679.88 2230.02 1680.81C2227.83 1688.11 2224.88 1695.59 2219.84 1700.85C2215.72 1705.15 2208.04 1708.41 2203.02 1703.31C2199.85 1700.08 2199.45 1694.68 2199.01 1690.42C2197.94 1679.89 2197.16 1668.98 2197.53 1658.39C2197.72 1653.37 2198.26 1648.28 2199.97 1643.55C2201.04 1640.6 2202.51 1636.13 2203.96 1641.21C2204.66 1643.69 2203.69 1647.56 2203.44 1650.09C2202.98 1654.61 2210 1655.13 2210.45 1650.63C2210.98 1645.33 2213.36 1634.2 2207.36 1630.88C2202.38 1628.12 2197.81 1632.08 2195.51 1636.21C2187.23 1651.08 2190.51 1671.52 2191.77 1687.68C2192.76 1700.58 2197.58 1716.4 2214.05 1712.29C2229.54 1708.44 2235.23 1688.91 2238.79 1675.47C2239.03 1674.63 2238.95 1673.87 2238.69 1673.21L2238.88 1672.88C2239.52 1673.52 2240.17 1674.16 2240.82 1674.81C2241.73 1675.61 2242.62 1676.48 2243.46 1677.36C2241.82 1679.61 2240.15 1681.85 2238.46 1684.07C2237.51 1685.32 2237.78 1687.2 2238.75 1688.36C2243.96 1694.63 2253.33 1689.98 2253.14 1682.27C2253.11 1680.48 2252.66 1678.89 2251.97 1677.44C2256.86 1670.4 2261.44 1663.15 2265.68 1655.71C2267.89 1657.87 2270.69 1659.25 2274.13 1659.09C2274.36 1659.08 2274.59 1659.05 2274.84 1659.03C2276.64 1660.93 2278.91 1662.52 2280.96 1663.68C2282.98 1664.81 2285.28 1665.51 2287.07 1666.97C2290.42 1669.71 2289.42 1672.83 2288.7 1676.71C2287.73 1681.81 2286.09 1686.92 2284.6 1691.89C2277.52 1695.96 2270.53 1701.13 2268.14 1709.28C2265.97 1716.72 2267.91 1724.55 2274.28 1729.16C2276.2 1730.56 2278.75 1729.44 2279.57 1727.42C2283.57 1717.59 2287.17 1707.6 2290.27 1697.45C2290.37 1697.13 2290.48 1696.8 2290.59 1696.48C2296.83 1692.92 2303.39 1689.79 2309.56 1686.13C2325.99 1676.41 2341.56 1665.33 2356.23 1653.15C2359.72 1650.25 2355.07 1644.96 2351.58 1647.87" fill="#F99746"/>
<path d="M2020.98 830.119L1949.52 672.427L2103.93 699.657C2105.63 699.952 2107.32 700.092 2109.01 700.092C2119.21 700.092 2128.84 694.752 2134.16 685.769L2212.91 553.051L2284.37 710.729L2020.98 830.119" fill="#DCE9FB"/>
<path d="M2108.99 700.116C2107.32 700.116 2105.61 699.966 2103.91 699.668L1949.5 672.448L2212.89 553.06L2134.15 685.78C2128.83 694.767 2119.2 700.116 2108.99 700.116" fill="#CEE1F6"/>
<path d="M533.631 1746.29L496.035 1645.47L590.617 1668.93C592.072 1669.29 593.541 1669.47 594.996 1669.47C600.879 1669.47 606.513 1666.6 609.959 1661.61L664.443 1582.67L702.037 1683.49L533.631 1746.29" fill="#DCE9FB"/>
<path d="M594.996 1669.47C593.541 1669.47 592.072 1669.29 590.617 1668.93L496.035 1645.47L664.443 1582.67L609.959 1661.61C606.513 1666.6 600.879 1669.47 594.996 1669.47" fill="#CEE1F6"/>
<path d="M3495.59 1180.57L3164.91 1092.32L3217.72 894.349L3338.67 1035.08C3345.38 1042.88 3355.04 1047.14 3364.95 1047.14C3368.91 1047.14 3372.92 1046.46 3376.79 1045.05L3548.42 982.596L3495.59 1180.57Z" fill="#DCE9FB"/>
<path d="M3364.95 1047.14C3355.04 1047.14 3345.38 1042.88 3338.67 1035.08L3217.72 894.349L3548.42 982.596L3376.79 1045.05C3372.92 1046.46 3368.91 1047.14 3364.95 1047.14Z" fill="#CEE1F6"/>
<path d="M692.177 1875.52C691.384 1875.52 690.712 1874.91 690.649 1874.11C690.584 1873.25 691.217 1872.52 692.061 1872.45C706.316 1871.36 715.187 1870.97 715.275 1870.97C716.124 1870.91 716.835 1871.6 716.871 1872.44C716.907 1873.29 716.249 1874 715.403 1874.04C715.316 1874.04 706.492 1874.41 692.297 1875.51L692.177 1875.52ZM646.235 1880.05C645.469 1880.05 644.807 1879.49 644.713 1878.71C644.611 1877.87 645.211 1877.11 646.052 1877C653.612 1876.09 661.341 1875.24 669.025 1874.48C669.863 1874.41 670.62 1875.01 670.703 1875.85C670.785 1876.69 670.169 1877.45 669.327 1877.53C661.665 1878.29 653.959 1879.13 646.42 1880.05H646.235ZM600.569 1886.69C599.835 1886.69 599.187 1886.17 599.059 1885.43C598.915 1884.59 599.475 1883.8 600.311 1883.65C607.667 1882.39 615.348 1881.17 623.14 1880.04C623.991 1879.91 624.757 1880.51 624.879 1881.33C625 1882.17 624.419 1882.96 623.581 1883.08C615.815 1884.2 608.161 1885.41 600.832 1886.68L600.569 1886.69ZM555.379 1896.01C554.689 1896.01 554.061 1895.55 553.889 1894.84C553.688 1894.03 554.192 1893.19 555.015 1892.99C562.187 1891.23 569.781 1889.52 577.589 1887.92C578.421 1887.76 579.231 1888.29 579.4 1889.12C579.571 1889.95 579.035 1890.76 578.205 1890.93C570.435 1892.52 562.879 1894.21 555.747 1895.97C555.623 1896 555.5 1896.01 555.379 1896.01V1896.01ZM1573.43 1898.8C1572.71 1898.8 1572.05 1898.29 1571.92 1897.56C1571.76 1896.72 1572.31 1895.92 1573.13 1895.76C1574.69 1895.47 1575.59 1895.29 1575.76 1895.27C1576.67 1895.05 1577.64 1895.79 1577.64 1896.76C1577.64 1898.03 1577.49 1898.05 1573.71 1898.77L1573.43 1898.8ZM1527.93 1907.33C1527.21 1907.33 1526.56 1906.81 1526.43 1906.08C1526.28 1905.25 1526.83 1904.45 1527.65 1904.29C1536.32 1902.69 1543.92 1901.28 1550.39 1900.07C1551.21 1899.91 1552.01 1900.45 1552.17 1901.29C1552.33 1902.12 1551.79 1902.92 1550.95 1903.08C1544.48 1904.29 1536.88 1905.71 1528.21 1907.31L1527.93 1907.33ZM511.241 1909.32C510.62 1909.32 510.033 1908.95 509.804 1908.32C509.508 1907.53 509.912 1906.65 510.707 1906.35C517.503 1903.81 524.896 1901.36 532.677 1899.03C533.493 1898.79 534.345 1899.25 534.587 1900.07C534.829 1900.88 534.368 1901.73 533.556 1901.97C525.839 1904.28 518.512 1906.72 511.777 1909.23C511.601 1909.29 511.42 1909.32 511.241 1909.32ZM1482.52 1915.64C1481.79 1915.64 1481.15 1915.12 1481.01 1914.37C1480.85 1913.55 1481.41 1912.75 1482.24 1912.59C1490.25 1911.15 1497.84 1909.76 1504.95 1908.47C1505.79 1908.31 1506.59 1908.87 1506.73 1909.69C1506.88 1910.53 1506.33 1911.33 1505.51 1911.48C1498.39 1912.79 1490.8 1914.16 1482.79 1915.61L1482.52 1915.64ZM1437.11 1923.76C1436.37 1923.76 1435.73 1923.24 1435.6 1922.49C1435.45 1921.65 1436 1920.87 1436.84 1920.72C1444.68 1919.32 1452.25 1917.97 1459.55 1916.68C1460.37 1916.52 1461.17 1917.08 1461.32 1917.92C1461.47 1918.75 1460.92 1919.55 1460.08 1919.69C1452.79 1921 1445.21 1922.35 1437.37 1923.73L1437.11 1923.76ZM470.121 1929.87C469.637 1929.87 469.16 1929.63 468.861 1929.2C468.377 1928.51 468.547 1927.56 469.243 1927.07C475.037 1923.03 481.807 1919.11 489.361 1915.43C490.121 1915.05 491.041 1915.36 491.413 1916.13C491.784 1916.89 491.468 1917.81 490.707 1918.17C483.295 1921.8 476.664 1925.63 470.997 1929.59C470.731 1929.77 470.424 1929.87 470.121 1929.87V1929.87ZM1391.68 1931.72C1390.95 1931.72 1390.31 1931.19 1390.17 1930.44C1390.03 1929.61 1390.59 1928.81 1391.43 1928.67C1399.17 1927.32 1406.75 1926 1414.13 1924.71C1414.97 1924.57 1415.76 1925.12 1415.91 1925.96C1416.05 1926.79 1415.49 1927.59 1414.67 1927.73C1407.28 1929.03 1399.71 1930.35 1391.95 1931.69L1391.68 1931.72ZM1346.25 1939.51C1345.52 1939.51 1344.87 1938.99 1344.75 1938.23C1344.6 1937.4 1345.16 1936.61 1346 1936.47C1353.71 1935.16 1361.28 1933.87 1368.72 1932.59C1369.55 1932.44 1370.35 1933 1370.48 1933.84C1370.63 1934.68 1370.07 1935.47 1369.23 1935.61C1361.8 1936.89 1354.21 1938.19 1346.51 1939.49L1346.25 1939.51ZM1300.8 1947.15C1300.06 1947.15 1299.41 1946.61 1299.29 1945.87C1299.15 1945.03 1299.71 1944.24 1300.55 1944.09C1308.23 1942.83 1315.8 1941.56 1323.28 1940.31C1324.12 1940.16 1324.9 1940.72 1325.04 1941.56C1325.18 1942.4 1324.62 1943.19 1323.78 1943.33C1316.31 1944.59 1308.73 1945.85 1301.05 1947.12L1300.8 1947.15ZM1255.32 1954.6C1254.58 1954.6 1253.93 1954.07 1253.81 1953.32C1253.67 1952.48 1254.24 1951.69 1255.08 1951.56C1262.73 1950.32 1270.32 1949.08 1277.82 1947.85C1278.65 1947.71 1279.44 1948.28 1279.58 1949.11C1279.71 1949.95 1279.15 1950.73 1278.31 1950.88C1270.81 1952.11 1263.23 1953.35 1255.57 1954.59L1255.32 1954.6ZM1209.82 1961.89C1209.08 1961.89 1208.43 1961.36 1208.31 1960.6C1208.17 1959.76 1208.75 1958.97 1209.58 1958.84C1217.22 1957.64 1224.81 1956.43 1232.33 1955.23C1233.16 1955.09 1233.95 1955.65 1234.09 1956.49C1234.22 1957.33 1233.65 1958.12 1232.82 1958.25C1225.29 1959.45 1217.7 1960.67 1210.06 1961.88L1209.82 1961.89ZM443.159 1965.49L442.855 1965.47C442.024 1965.29 441.487 1964.49 441.653 1963.67C443.128 1956.35 446.587 1949.29 451.935 1942.71C452.471 1942.05 453.435 1941.95 454.093 1942.48C454.751 1943.01 454.851 1943.99 454.317 1944.64C449.285 1950.84 446.036 1957.44 444.661 1964.27C444.515 1965 443.875 1965.49 443.159 1965.49V1965.49ZM1164.29 1968.99C1163.55 1968.99 1162.89 1968.45 1162.78 1967.69C1162.65 1966.85 1163.22 1966.07 1164.06 1965.95C1171.69 1964.77 1179.28 1963.59 1186.82 1962.41C1187.66 1962.29 1188.45 1962.85 1188.58 1963.69C1188.71 1964.53 1188.13 1965.32 1187.3 1965.45C1179.75 1966.63 1172.16 1967.8 1164.53 1968.97L1164.29 1968.99ZM1118.74 1975.89C1117.99 1975.89 1117.33 1975.35 1117.22 1974.59C1117.09 1973.75 1117.67 1972.96 1118.51 1972.84C1126.13 1971.71 1133.73 1970.56 1141.29 1969.41C1142.13 1969.29 1142.91 1969.87 1143.03 1970.71C1143.16 1971.55 1142.59 1972.32 1141.75 1972.45C1134.18 1973.6 1126.59 1974.73 1118.96 1975.87L1118.74 1975.89ZM1073.15 1982.56C1072.4 1982.56 1071.74 1982.01 1071.63 1981.25C1071.51 1980.41 1072.09 1979.64 1072.93 1979.51C1080.55 1978.41 1088.15 1977.32 1095.72 1976.2C1096.56 1976.07 1097.34 1976.65 1097.46 1977.51C1097.59 1978.33 1097.01 1979.12 1096.17 1979.24C1088.59 1980.35 1080.98 1981.45 1073.37 1982.55L1073.15 1982.56ZM1027.53 1989.01C1026.77 1989.01 1026.11 1988.45 1026.01 1987.68C1025.89 1986.84 1026.48 1986.07 1027.32 1985.96C1034.93 1984.91 1042.53 1983.84 1050.13 1982.77C1050.95 1982.64 1051.74 1983.23 1051.86 1984.07C1051.98 1984.91 1051.4 1985.69 1050.56 1985.8C1042.96 1986.88 1035.35 1987.95 1027.74 1989L1027.53 1989.01ZM981.804 1995.2C981.047 1995.2 980.387 1994.63 980.285 1993.87C980.175 1993.01 980.764 1992.25 981.605 1992.13C989.213 1991.13 996.828 1990.12 1004.44 1989.08C1005.3 1988.97 1006.06 1989.56 1006.17 1990.4C1006.28 1991.24 1005.69 1992.01 1004.86 1992.12C997.236 1993.16 989.617 1994.17 982.007 1995.17L981.804 1995.2ZM936.216 2001.05C935.455 2001.05 934.793 2000.49 934.696 1999.72C934.591 1998.88 935.187 1998.11 936.028 1998C943.601 1997.05 951.195 1996.09 958.8 1995.11C959.636 1995.01 960.409 1995.6 960.517 1996.44C960.625 1997.28 960.032 1998.05 959.192 1998.16C951.583 1999.13 943.987 2000.11 936.409 2001.05H936.216ZM890.476 2006.61C889.709 2006.61 889.047 2006.03 888.955 2005.25C888.856 2004.41 889.459 2003.65 890.3 2003.55C897.895 2002.65 905.52 2001.75 913.168 2000.83C914.008 2000.72 914.775 2001.32 914.876 2002.16C914.979 2003 914.379 2003.77 913.537 2003.87C905.885 2004.8 898.256 2005.71 890.657 2006.6L890.476 2006.61ZM457.053 2006.96C456.74 2006.96 456.424 2006.87 456.151 2006.67C451.707 2003.43 448.499 1999.77 446.615 1995.79C445.239 1992.87 444.091 1989.95 443.204 1987.11C442.952 1986.29 443.404 1985.44 444.213 1985.19C445.017 1984.93 445.883 1985.39 446.133 1986.2C446.977 1988.91 448.073 1991.69 449.389 1994.47C451.051 1997.99 453.933 2001.25 457.959 2004.19C458.643 2004.69 458.793 2005.65 458.295 2006.33C457.995 2006.75 457.528 2006.96 457.053 2006.96V2006.96ZM844.689 2011.77C843.917 2011.77 843.251 2011.19 843.167 2010.4C843.076 2009.56 843.685 2008.8 844.528 2008.71C852.116 2007.89 859.749 2007.04 867.419 2006.17C868.261 2006.09 869.021 2006.69 869.116 2007.53C869.211 2008.37 868.605 2009.13 867.763 2009.23C860.087 2010.09 852.451 2010.93 844.857 2011.76L844.689 2011.77ZM798.853 2016.47C798.073 2016.47 797.405 2015.88 797.329 2015.09C797.247 2014.24 797.863 2013.49 798.707 2013.41C806.288 2012.68 813.929 2011.91 821.624 2011.12C822.461 2011.05 823.22 2011.64 823.307 2012.49C823.393 2013.33 822.78 2014.08 821.937 2014.17C814.239 2014.96 806.591 2015.73 799.003 2016.47H798.853ZM752.961 2020.64C752.171 2020.64 751.5 2020.03 751.433 2019.23C751.361 2018.39 751.989 2017.64 752.833 2017.57C760.405 2016.93 768.056 2016.27 775.776 2015.56C776.628 2015.49 777.367 2016.11 777.444 2016.96C777.52 2017.8 776.899 2018.55 776.055 2018.63C768.327 2019.32 760.669 2020 753.091 2020.63L752.961 2020.64ZM500.153 2022.05L499.881 2022.03C491.415 2020.51 483.824 2018.69 477.321 2016.63C476.515 2016.37 476.068 2015.51 476.324 2014.71C476.58 2013.89 477.444 2013.44 478.251 2013.71C484.627 2015.73 492.087 2017.52 500.423 2019.01C501.257 2019.16 501.812 2019.96 501.663 2020.79C501.528 2021.53 500.883 2022.05 500.153 2022.05V2022.05ZM707.009 2024.13C706.209 2024.13 705.535 2023.52 705.48 2022.71C705.423 2021.85 706.061 2021.13 706.908 2021.07C714.464 2020.56 722.123 2020 729.879 2019.41C730.723 2019.35 731.46 2019.99 731.525 2020.83C731.589 2021.67 730.956 2022.41 730.112 2022.48C722.348 2023.07 714.68 2023.61 707.115 2024.13H707.009ZM660.996 2026.77C660.181 2026.77 659.501 2026.13 659.464 2025.32C659.425 2024.47 660.079 2023.75 660.925 2023.71C668.309 2023.37 676.048 2022.96 683.921 2022.51C684.767 2022.49 685.493 2023.11 685.543 2023.96C685.591 2024.8 684.944 2025.53 684.099 2025.57C676.213 2026.03 668.464 2026.44 661.068 2026.77H660.996ZM545.877 2027.12H545.783C537.668 2026.63 529.928 2026 522.777 2025.24C521.935 2025.15 521.325 2024.39 521.415 2023.55C521.504 2022.71 522.263 2022.09 523.103 2022.19C530.207 2022.95 537.9 2023.57 545.968 2024.05C546.813 2024.11 547.457 2024.84 547.407 2025.68C547.359 2026.49 546.683 2027.12 545.877 2027.12ZM614.924 2028.28C614.088 2028.28 613.405 2027.61 613.391 2026.77C613.376 2025.92 614.052 2025.23 614.899 2025.21C622.268 2025.08 630.012 2024.89 637.916 2024.63C638.799 2024.56 639.472 2025.27 639.5 2026.11C639.528 2026.96 638.864 2027.67 638.016 2027.69C630.097 2027.96 622.336 2028.15 614.951 2028.28H614.924ZM591.88 2028.45H591.876C583.885 2028.43 576.131 2028.32 568.827 2028.12C567.979 2028.09 567.312 2027.39 567.335 2026.53C567.357 2025.69 568.039 2025.03 568.911 2025.05C576.189 2025.25 583.919 2025.36 591.884 2025.39C592.731 2025.39 593.417 2026.07 593.415 2026.92C593.412 2027.76 592.725 2028.45 591.88 2028.45Z" fill="#AFCDFB"/>
<path d="M1624.71 1979.61L1813.71 1872.51L1641.29 1882.69L1654.6 1911.81L1618.99 1951.27L1624.71 1979.61" fill="#AFCDFB"/>
<path d="M1813.71 1872.51L1615.65 1908.8L1471.4 2008.99L1813.71 1872.51Z" fill="white"/>
<path d="M1641.29 1882.69L1813.71 1872.51L1633.36 1819.65L1641.29 1882.69Z" fill="white"/>
<path d="M2647 572.354L2861.56 606.307L2720.36 506.872L2712.64 537.945L2660.18 546.618L2647 572.354" fill="#AFCDFB"/>
<path d="M2861.56 606.307L2684.04 511.313L2508.78 499.814L2861.56 606.307Z" fill="white"/>
<path d="M2720.36 506.872L2861.56 606.307L2753.44 452.625L2720.36 506.872Z" fill="white"/>
<path d="M3296.72 1441.68C3296.72 1441.68 3252.97 1444.72 3220.68 1523.51C3188.1 1602.97 3260.96 1602.19 3236.42 1652.81C3211.87 1703.44 3271.74 1733.64 3289.94 1775.09C3308.1 1816.53 3399.71 1916.53 3406.98 1962.13C3414.22 2007.73 3495.67 1914.72 3495.67 1914.72C3495.67 1914.72 3578.48 1826.4 3548.8 1775.09C3499.86 1690.52 3542.26 1672.15 3540.72 1624.91C3539.18 1577.68 3449.52 1391.57 3296.72 1441.68" fill="#233862"/>
<path d="M3272.96 1724.34C3272.96 1724.34 3103.58 1798.16 3071.41 1796.75C3039.23 1795.35 2840.99 1736.36 2840.99 1736.36L2846.04 1770.47C2846.04 1770.47 2999.05 1858.47 3052.53 1863.46C3105.19 1868.38 3285.25 1816.19 3302.64 1805.18C3320.04 1794.16 3323.48 1735.48 3272.96 1724.34Z" fill="#FFAD76"/>
<path d="M3259.32 1805.27C3274.87 1816.07 3294.4 1824.97 3318.89 1830.63C3410.76 1851.85 3445.94 1774.23 3459.16 1720.93C3446.64 1713.76 3434.87 1712.19 3428.05 1711.37C3421.41 1710.59 3414.43 1710.07 3408.64 1709.79C3398.34 1701.88 3382.96 1669.55 3379.56 1619.34L3375.25 1620.51L3302.87 1640.32C3302.87 1640.32 3306.18 1663.33 3307.81 1685.08C3309.06 1702.11 3311.27 1711.99 3308.04 1715.96C3302.4 1717.19 3296.99 1724.37 3296.99 1724.37L3296.94 1724.44C3295.97 1726.04 3274.98 1760.57 3259.32 1805.27" fill="#FFB27D"/>
<path d="M3302.84 1640.34C3302.84 1640.34 3306.17 1663.34 3307.79 1685.1C3348.79 1680.99 3367.84 1641.95 3375.23 1620.52L3302.84 1640.34Z" fill="#CBA76B"/>
<path d="M3290.6 1661.94C3290.6 1661.94 3387.93 1656.56 3383.67 1596C3379.38 1535.43 3389.07 1493.95 3326.74 1494.81C3264.41 1495.68 3253.99 1519.64 3250.5 1540.22C3247 1560.77 3265.18 1661.78 3290.6 1661.94Z" fill="#FFB27D"/>
<path d="M3486.91 2003.19C3495.69 1958.25 3524.35 1778.71 3495.69 1720.93C3485.39 1700.17 3445.02 1698.3 3400.69 1700.12C3386.89 1709.02 3334.33 1742.66 3312.78 1738.46C3312.54 1738.43 3312.12 1738.33 3311.56 1738.18C3301.39 1735.64 3299.57 1722.12 3308.04 1715.96C3308.06 1715.95 3284.1 1720.22 3256.83 1725.36C3241.44 1728.27 3199.9 1749.75 3199.9 1749.75C3199.9 1749.75 3220.8 1787.53 3251.65 1800.57C3246.42 1847.48 3254.22 1868.17 3302.87 1976.51C3343.98 2068.08 3297.31 2150.53 3297.31 2150.53C3297.31 2150.53 3539.36 2345.13 3540.71 2246.05C3541.73 2171.45 3475.65 2060.63 3486.91 2003.19" fill="#739AF0"/>
<path d="M3285.3 2362.15C3272.15 2360.65 3260.29 2353.45 3252.94 2342.44C3251.79 2340.68 3250.52 2338.81 3249.19 2336.8C3221.65 2295.09 3210.92 2167.36 3148.96 2031.28C3133.86 1998.15 3079.67 1992.19 3064.89 1954.73C3064.89 1954.73 3028.52 1833.35 3134.5 1829.77C3240.48 1826.19 3418.31 2167.52 3421.12 2203.32C3423.84 2238 3491.18 2385.37 3285.3 2362.15" fill="#233862"/>
<path d="M2864.13 2359.35H3014.95C3014.95 2359.35 3020.59 2335.29 3010.67 2318.92C3001.92 2304.44 3005.28 2296.19 3011.77 2284.2C3004.95 2287 2996.11 2289.55 2986.38 2288.99C2978.85 2288.56 2970.9 2285.15 2963.94 2281.09C2957.43 2288.51 2929.65 2320 2920.96 2326.24C2911.1 2333.33 2867.17 2330.8 2864.13 2359.35" fill="#172B4C"/>
<path d="M3471 1767.99C3471 1767.99 3490.63 1946.6 3363.32 1984.01C3236.01 2021.44 3199.86 1819.69 3302.65 1805.17C3405.45 1790.67 3471 1767.99 3471 1767.99" fill="#5486D6"/>
<path d="M3061.44 1864.85C3052.37 1932.95 3016.89 2147.85 2954.34 2252.71C2934.17 2286.51 3005.16 2305.45 3005.53 2305.36C3015.05 2302.87 3030.92 2287.69 3038.22 2281.09C3089.04 2235.32 3192.14 2105.71 3192.14 2001.79C3192.14 1951.11 3193.02 1854.33 3156.17 1829.75C3133.49 1814.6 3065.06 1837.81 3061.44 1864.85" fill="#233862"/>
<path d="M3375.25 2359.35C3375.25 2359.35 3369.65 2351.57 3359.9 2336.8C3348.3 2319.23 3335.47 2284.65 3319.9 2240.33C3303.55 2193.81 3284.12 2136.57 3259.87 2077.01C3252.39 2058.63 3244.45 2040.03 3236 2021.44C3220.89 1988.32 3179.36 1992.9 3164.58 1955.44C3164.58 1955.44 3106.95 1825.62 3212.9 1822.03C3318.88 1818.44 3520.23 2169.33 3531.83 2203.32C3544.48 2240.52 3606.3 2395 3375.25 2359.35" fill="#2B478B"/>
<path d="M2974.85 2359.35H3125.67C3125.67 2359.35 3131.32 2335.29 3121.4 2318.92C3112.64 2304.44 3116.01 2296.19 3122.5 2284.2C3115.66 2287 3106.84 2289.55 3097.1 2288.99C3089.59 2288.56 3081.64 2285.15 3074.66 2281.09C3068.17 2288.51 3040.37 2320 3031.69 2326.24C3021.84 2333.33 2977.88 2330.8 2974.85 2359.35Z" fill="#233862"/>
<path d="M3319.91 2240.33C3303.55 2193.81 3284.14 2136.57 3259.89 2077.01C3266.21 2031.89 3279.89 1992.41 3302.85 1976.51C3302.85 1976.51 3358.6 2149.17 3319.91 2240.33" fill="#23407A"/>
<path d="M3149.51 1860.04C3140.41 1928.12 3127.62 2147.85 3065.05 2252.71C3044.89 2286.51 3115.87 2305.45 3116.26 2305.36C3125.78 2302.87 3141.65 2287.69 3148.96 2281.09C3199.74 2235.32 3302.86 2105.71 3302.86 2001.79C3302.86 1951.11 3243.39 1858.4 3206.53 1833.81C3183.85 1818.67 3153.09 1832.98 3149.51 1860.04" fill="#2B478B"/>
<path d="M2962.72 1681.47C2962.72 1681.47 2955.01 1661.84 2940.95 1663.11C2926.88 1664.39 2799.15 1681.47 2799.15 1681.47C2799.15 1681.47 2814.02 1685.03 2819.64 1694.78L2878.56 1868.39H3029.67L2962.72 1681.47Z" fill="#EBF3FA"/>
<path d="M3459.16 1720.93C3459.16 1720.93 3245.09 1799.77 3212.92 1798.16C3192.14 1797.11 3019.33 1736.36 3019.33 1736.36L3003.8 1765.71C3003.8 1765.71 3172.01 1873.83 3218.24 1873.28C3309.56 1872.23 3463.59 1816.19 3480.97 1805.17C3498.35 1794.16 3509.69 1732.08 3459.16 1720.93Z" fill="#FFBF94"/>
<path d="M3019.32 1736.36C3019.32 1736.36 3003.8 1712.49 2988.37 1711.79C2972.91 1711.08 2946.23 1722.32 2937.1 1724.08C2927.99 1725.83 2902 1734.25 2909.72 1746.89C2917.45 1759.53 2953.25 1762.35 2968.7 1759.53C2984.15 1756.72 3003.8 1765.71 3003.8 1765.71L3019.32 1736.36" fill="#FFBF94"/>
<path d="M2992.55 1712.52C2992.55 1712.52 2967.98 1701.26 2960.97 1699.15C2953.94 1697.04 2955.35 1699.19 2957.47 1705.84C2959.56 1712.5 2972.21 1718.84 2972.21 1720.94C2972.21 1723.03 2992.55 1712.52 2992.55 1712.52" fill="#FFBF94"/>
<path d="M3272.4 1627.11C3272.4 1627.11 3281.6 1623.47 3307.49 1625.56C3307.49 1625.56 3306.11 1635.66 3287.01 1636.66C3276.2 1637.22 3272.4 1627.11 3272.4 1627.11Z" fill="white"/>
<path d="M3348.85 1759.81C3348.85 1759.81 3368.02 1820.43 3433.76 1834.21C3433.76 1834.21 3542.36 1800.76 3488.29 1726.79C3488.29 1726.79 3434.85 1687.07 3348.85 1759.81Z" fill="#739AF0"/>
<path d="M2799.18 1681.46C2799.18 1681.46 2784.99 1686.89 2795.72 1705.3L2933.8 1686.89C2933.8 1686.89 2929.01 1665.54 2939.85 1663.23L2799.18 1681.46Z" fill="white"/>
<path d="M2848.64 1726.79C2851.91 1713.66 2851.72 1710.48 2844.3 1702.47C2839.39 1697.18 2831.88 1710.31 2828.01 1718.23C2826.58 1714.74 2824.15 1709.04 2823.32 1708.76C2822.13 1708.35 2824.99 1726.4 2824.99 1726.4V1726.39C2824.92 1727.14 2824.88 1727.9 2824.9 1728.66L2824.88 1728.64C2824.88 1728.64 2818.9 1755.18 2845 1769.51L2840.02 1754.88C2843.04 1754.39 2845.32 1740.11 2848.64 1726.79Z" fill="#FFAD76"/>
<path d="M3286.91 1508.2C3286.91 1508.2 3307.42 1501 3317.36 1521.97C3327.31 1542.93 3330.47 1593.05 3370.3 1597.15C3410.15 1601.24 3411.68 1512.25 3411.68 1512.25L3311.96 1472.88L3259.3 1506.12L3286.91 1508.2Z" fill="#233862"/>
<path d="M3286.91 1508.2C3286.91 1508.2 3264.44 1508.68 3259.3 1527.6C3254.18 1546.52 3262.18 1581.8 3249.74 1584.36C3237.3 1586.92 3226.01 1525.55 3250.06 1505.61C3274.12 1485.67 3286.91 1508.2 3286.91 1508.2" fill="#233862"/>
<path d="M1523.23 1179.68C1523.23 1179.68 1545.72 1171.16 1548.28 1165.28C1550.84 1159.4 1558.25 1156.84 1567.2 1152.75C1576.15 1148.65 1581.52 1141.24 1582.8 1142.27C1584.08 1143.28 1584.33 1148.4 1580.75 1152.24C1577.17 1156.07 1562.01 1182.92 1556.29 1185.99C1550.57 1189.05 1523.23 1179.68 1523.23 1179.68Z" fill="#FFB27D"/>
<path d="M3856.99 2358.27H3712.39C3704.66 2351.69 3717.77 2336.76 3731.48 2335.76C3737.42 2335.31 3744.94 2336.56 3753.53 2338.37C3755.53 2311.94 3766.88 2193.16 3809.71 2197.93C3857.84 2203.28 3809.71 2250.25 3796.1 2278.05C3786.01 2298.65 3775.38 2328.19 3770.52 2342.12C3774.42 2342.97 3778.47 2343.8 3782.61 2344.56C3788.99 2324.97 3812.73 2259.07 3842.93 2262.91C3878.38 2267.4 3864.13 2293.83 3839 2309.51C3820.56 2321.04 3797.93 2337.44 3787.18 2345.36C3796.29 2346.84 3805.78 2347.85 3815.44 2347.63C3840.21 2347.04 3852.3 2354.33 3856.99 2358.27Z" fill="#82B378"/>
<path d="M617.003 2361.2C617.003 2361.2 562.051 2210.28 523.468 2223.15C484.884 2236.01 617.003 2361.2 617.003 2361.2Z" fill="#82B378"/>
<path d="M595.957 2361.2C591.28 2361.2 503.591 2270.2 497.745 2294.03C491.899 2317.85 595.957 2361.2 595.957 2361.2Z" fill="#82B378"/>
<path d="M689.492 2361.2C689.492 2361.2 653.227 2327.95 607.311 2336.6C561.395 2345.27 541.784 2354.75 512.944 2348.19C484.104 2341.63 469.371 2361.2 469.371 2361.2H689.492Z" fill="#82B378"/>
<path d="M4069.06 2369.76H220.775C218.371 2369.76 216.406 2367.8 216.406 2365.4V2363.91C216.406 2361.51 218.371 2359.53 220.775 2359.53H4069.06C4071.46 2359.53 4073.43 2361.51 4073.43 2363.91V2365.4C4073.43 2367.8 4071.46 2369.76 4069.06 2369.76Z" fill="#2E3552"/>
<path d="M1808.4 2300.95H1522.76C1506.8 2300.95 1493.87 2288.01 1493.87 2272.05V2194.16C1493.87 2178.21 1506.8 2165.28 1522.76 2165.28H1808.4C1824.36 2165.28 1837.28 2178.21 1837.28 2194.16V2272.05C1837.28 2288.01 1824.36 2300.95 1808.4 2300.95" fill="#FCECDB"/>
<path d="M1750.29 2199H1535.13C1532.72 2199 1530.76 2197.04 1530.76 2194.64C1530.76 2192.24 1532.72 2190.27 1535.13 2190.27H1750.29C1752.69 2190.27 1754.67 2192.24 1754.67 2194.64C1754.67 2197.04 1752.69 2199 1750.29 2199Z" fill="#EFCBAB"/>
<path d="M1573.29 2217.85H1535.13C1532.72 2217.85 1530.76 2215.88 1530.76 2213.48C1530.76 2211.08 1532.72 2209.11 1535.13 2209.11H1573.29C1575.69 2209.11 1577.65 2211.08 1577.65 2213.48C1577.65 2215.88 1575.69 2217.85 1573.29 2217.85Z" fill="#EFCBAB"/>
<path d="M1693.51 2217.85H1588.37C1585.97 2217.85 1584 2215.88 1584 2213.48C1584 2211.08 1585.97 2209.11 1588.37 2209.11H1693.51C1695.91 2209.11 1697.87 2211.08 1697.87 2213.48C1697.87 2215.88 1695.91 2217.85 1693.51 2217.85Z" fill="#EFCBAB"/>
<path d="M1750.29 2252.75H1535.13C1532.72 2252.75 1530.76 2250.77 1530.76 2248.37C1530.76 2245.97 1532.72 2244 1535.13 2244H1750.29C1752.69 2244 1754.67 2245.97 1754.67 2248.37C1754.67 2250.77 1752.69 2252.75 1750.29 2252.75Z" fill="#EFCBAB"/>
<path d="M1613.23 2271.59H1535.13C1532.72 2271.59 1530.76 2269.61 1530.76 2267.21C1530.76 2264.81 1532.72 2262.84 1535.13 2262.84H1613.23C1615.63 2262.84 1617.59 2264.81 1617.59 2267.21C1617.59 2269.61 1615.63 2271.59 1613.23 2271.59Z" fill="#EFCBAB"/>
<path d="M1708.24 2271.59H1630.15C1627.75 2271.59 1625.79 2269.61 1625.79 2267.21C1625.79 2264.81 1627.75 2262.84 1630.15 2262.84H1708.24C1710.65 2262.84 1712.61 2264.81 1712.61 2267.21C1712.61 2269.61 1710.65 2271.59 1708.24 2271.59Z" fill="#EFCBAB"/>
</svg>
