<svg width="40" height="39" viewBox="0 0 40 39" fill="none" xmlns="http://www.w3.org/2000/svg">
<g clip-path="url(#clip0)">
<path d="M25.082 15.511L28.341 18.996C28.4937 19.1589 28.6781 19.2887 28.883 19.3775C29.0879 19.4662 29.3087 19.512 29.532 19.512H35.141C35.5667 19.5015 35.9714 19.3249 36.2688 19.0201C36.5662 18.7153 36.7326 18.3063 36.7326 17.8805C36.7326 17.4547 36.5662 17.0457 36.2688 16.7409C35.9714 16.4361 35.5667 16.2595 35.141 16.249H30.241L27.461 13.281C27.1634 12.9726 26.7564 12.7937 26.3279 12.7829C25.8995 12.7721 25.484 12.9303 25.1712 13.2233C24.8584 13.5163 24.6734 13.9205 24.6561 14.3488C24.6389 14.777 24.7908 15.1948 25.079 15.512L25.082 15.511Z" fill="white"/>
<path d="M39.393 31.414L37.455 22.185C37.3788 21.8172 37.178 21.487 36.8865 21.2502C36.595 21.0133 36.2306 20.8843 35.855 20.885H30.294L30.094 20.326H29.54C29.2052 20.3247 28.8741 20.2553 28.5669 20.1221C28.2597 19.9889 27.9828 19.7946 27.753 19.551L24.49 16.067C24.1604 15.7161 23.942 15.2756 23.8621 14.8009C23.7822 14.3262 23.8444 13.8384 24.041 13.399L22.581 13.929C22.3959 13.9944 22.2254 14.0957 22.0796 14.2272C21.9337 14.3587 21.8153 14.5177 21.7311 14.6951C21.6469 14.8725 21.5986 15.0648 21.589 15.261C21.5794 15.4571 21.6086 15.6532 21.675 15.838L24.661 24.086C24.7264 24.272 24.8281 24.4431 24.9603 24.5893C25.0925 24.7355 25.2525 24.854 25.4309 24.9378C25.6093 25.0215 25.8027 25.069 25.9996 25.0772C26.1966 25.0855 26.3932 25.0545 26.578 24.986L28.897 24.15H34.537L35.009 26.398H24.747L21.655 19.912C21.4934 20.921 21.4115 21.9411 21.41 22.963C21.414 23.5622 21.3621 24.1604 21.255 24.75L22.871 28.15C22.9718 28.3591 23.1293 28.5355 23.3256 28.6593C23.5218 28.7831 23.749 28.8492 23.981 28.85H26.176V34.3H21.883C21.5173 34.3 21.1665 34.4453 20.9079 34.7039C20.6493 34.9625 20.504 35.3133 20.504 35.679C20.504 36.0447 20.6493 36.3955 20.9079 36.6541C21.1665 36.9127 21.5173 37.058 21.883 37.058H36.316C36.6818 37.058 37.0325 36.9127 37.2911 36.6541C37.5497 36.3955 37.695 36.0447 37.695 35.679C37.695 35.3133 37.5497 34.9625 37.2911 34.7039C37.0325 34.4453 36.6818 34.3 36.316 34.3H32.032V28.85H35.52L36.2 32.088C36.2389 32.3026 36.3205 32.5073 36.4399 32.6899C36.5592 32.8724 36.714 33.0292 36.895 33.151C37.076 33.2727 37.2795 33.357 37.4936 33.3987C37.7077 33.4404 37.928 33.4388 38.1415 33.3939C38.3549 33.3491 38.5572 33.2619 38.7364 33.1375C38.9156 33.0131 39.0681 32.8541 39.1847 32.6698C39.3014 32.4855 39.38 32.2797 39.4157 32.0645C39.4515 31.8493 39.4438 31.6291 39.393 31.417V31.414Z" fill="white"/>
<path d="M16.067 10.189L16.556 4.47C15.944 4.087 15.21 5.359 15.21 5.359L14.802 10.246C15.0481 10.1711 15.3038 10.1327 15.561 10.132C15.7314 10.1303 15.9013 10.1494 16.067 10.189Z" fill="white"/>
<path d="M19.159 5.237L16.14 10.205C16.5484 10.3043 16.9247 10.5063 17.233 10.792L19.493 6.966C20.203 5.514 19.159 5.237 19.159 5.237Z" fill="white"/>
<path d="M7.57397 9.194L10.152 12.025C10.252 10.819 10.552 9.438 9.18898 9.316L7.57397 9.194Z" fill="white"/>
<path d="M9.508 20.309L9.708 17.768C8.435 17.704 8.355 17.315 3.908 12.439C3.475 11.9568 3.24933 11.3234 3.27983 10.6761C3.31034 10.0287 3.59457 9.41937 4.071 8.98C4.095 8.964 4.112 8.939 4.136 8.931L3.328 8.866C3.17466 8.85345 3.02034 8.87142 2.87399 8.91888C2.72763 8.96634 2.59214 9.04234 2.47534 9.1425C2.35854 9.24265 2.26275 9.36496 2.19352 9.50237C2.12429 9.63977 2.08299 9.78954 2.072 9.943L1.219 20.958C1.20645 21.1322 1.23278 21.307 1.29608 21.4697C1.35938 21.6324 1.45807 21.7791 1.585 21.899L2.575 28.359L0.0890035 36.259C-0.0409526 36.6717 -0.00165069 37.1191 0.198263 37.5028C0.398177 37.8865 0.742327 38.175 1.155 38.305C1.56768 38.435 2.01508 38.3957 2.39878 38.1957C2.78248 37.9958 3.07105 37.6517 3.201 37.239C5.888 28.704 5.952 28.847 5.858 28.239L4.967 22.431L6.679 22.565L8.213 29.224L5.913 36.184C5.83764 36.3892 5.8043 36.6075 5.81496 36.8258C5.82562 37.0441 5.88006 37.2581 5.97505 37.455C6.07003 37.6519 6.20363 37.8276 6.36789 37.9719C6.53216 38.1161 6.72374 38.2258 6.93126 38.2946C7.13877 38.3633 7.35798 38.3896 7.57587 38.3719C7.79375 38.3543 8.00586 38.293 8.19959 38.1917C8.39331 38.0904 8.56471 37.9513 8.70358 37.7824C8.84246 37.6136 8.94598 37.4186 9.008 37.209L11.456 29.815C11.5499 29.5313 11.5641 29.2272 11.497 28.936L9.508 20.309Z" fill="white"/>
<path d="M14.8571 11.108L10.2421 13.333L6.93209 9.695C6.64035 9.37488 6.2334 9.18377 5.80075 9.1637C5.36811 9.14364 4.94521 9.29626 4.62509 9.588C4.30498 9.87974 4.11386 10.2867 4.0938 10.7193C4.07373 11.152 4.22635 11.5749 4.51809 11.895C8.73109 16.524 9.15209 17.483 10.5631 16.805L16.2741 14.052C16.4703 13.9609 16.6464 13.8317 16.7922 13.672C16.938 13.5122 17.0506 13.3251 17.1234 13.1214C17.1963 12.9177 17.2279 12.7016 17.2165 12.4856C17.2051 12.2696 17.1508 12.0581 17.0569 11.8632C16.963 11.6684 16.8313 11.4942 16.6694 11.3507C16.5076 11.2072 16.3189 11.0973 16.1142 11.0274C15.9095 10.9575 15.6929 10.929 15.4771 10.9435C15.2613 10.958 15.0506 11.0153 14.8571 11.112V11.108Z" fill="white"/>
<path d="M7.10093 7.342C9.12837 7.342 10.7719 5.69844 10.7719 3.671C10.7719 1.64356 9.12837 0 7.10093 0C5.07349 0 3.42993 1.64356 3.42993 3.671C3.42993 5.69844 5.07349 7.342 7.10093 7.342Z" fill="white"/>
<path d="M22.871 12.553C24.3754 12.553 25.595 11.3334 25.595 9.829C25.595 8.32458 24.3754 7.105 22.871 7.105C21.3665 7.105 20.147 8.32458 20.147 9.829C20.147 11.3334 21.3665 12.553 22.871 12.553Z" fill="white"/>
</g>
<defs>
<clipPath id="clip0">
<rect width="39.429" height="38.38" fill="white"/>
</clipPath>
</defs>
</svg>
