<svg width="250" height="250" viewBox="0 0 250 250" fill="none" xmlns="http://www.w3.org/2000/svg">
<rect width="250" height="250" rx="25" fill="white"/>
<rect width="250" height="250" fill="#D1870B"/>
<path d="M124.662 104.48L84.5236 72.1301C84.0645 71.7603 83.4991 71.4705 82.8685 71.2819C82.238 71.0932 81.5581 71.0103 80.8785 71.0393C80.1989 71.0683 79.5366 71.2085 78.94 71.4496C78.3433 71.6907 77.8273 72.0267 77.4295 72.4331L70.1067 79.9736C68.0681 82.096 67.0197 84.6472 67.1187 87.2448C67.2177 89.8424 68.4588 92.3464 70.6559 94.3814L111.481 132.017L99.9473 142.991C94.0648 141.525 87.6504 141.726 81.9587 143.555C76.2671 145.384 71.7078 148.708 69.1726 152.879C66.6374 157.049 66.3087 161.765 68.2509 166.104C70.1931 170.443 74.2663 174.094 79.6739 176.341C85.0815 178.588 91.4344 179.27 97.4899 178.254C103.545 177.239 108.868 174.598 112.416 170.848C115.964 167.099 117.483 162.511 116.675 157.981C115.867 153.452 112.791 149.307 108.048 146.357L117.202 137.538L132.992 151.811C130.033 155.855 129.231 160.566 130.744 165.022C132.257 169.478 135.976 173.359 141.173 175.905C146.37 178.452 152.671 179.481 158.845 178.791C165.019 178.101 170.62 175.742 174.555 172.175C178.489 168.608 180.473 164.091 180.118 159.505C179.763 154.92 177.096 150.596 172.637 147.381C168.179 144.165 162.249 142.288 156.009 142.118C149.769 141.947 143.667 143.495 138.896 146.458L77.7957 90.2072C76.8337 89.3119 76.2916 88.2116 76.2504 87.0709C76.2091 85.9301 76.671 84.8102 77.5668 83.8785L81.5944 79.738L124.708 114.445L167.73 79.738L171.757 83.8785C172.653 84.8102 173.115 85.9301 173.074 87.0708C173.032 88.2116 172.49 89.3119 171.528 90.2072L135.601 123.231L141.825 128.247L178.439 94.3814C180.647 92.3435 181.895 89.8329 181.994 87.2282C182.093 84.6234 181.038 82.0655 178.988 79.9399L171.666 72.3994C171.268 71.993 170.752 71.6571 170.155 71.416C169.559 71.1749 168.896 71.0347 168.217 71.0057C167.537 70.9766 166.857 71.0595 166.227 71.2482C165.596 71.4369 165.031 71.7267 164.572 72.0964L124.662 104.48ZM108.002 160.395C108.012 162.7 107.091 164.955 105.356 166.875C103.621 168.795 101.151 170.293 98.2586 171.18C95.3659 172.066 92.1804 172.302 89.1056 171.856C86.0307 171.411 83.2048 170.304 80.9856 168.676C78.7663 167.049 77.2536 164.974 76.6388 162.713C76.0241 160.453 76.335 158.109 77.5322 155.979C78.7294 153.849 80.7591 152.028 83.3642 150.746C85.9694 149.465 89.0329 148.781 92.1668 148.781C96.3588 148.781 100.38 150.004 103.348 152.181C106.317 154.358 107.99 157.312 108.002 160.395V160.395ZM170.796 160.395C170.805 162.7 169.884 164.955 168.15 166.875C166.415 168.795 163.945 170.293 161.052 171.18C158.159 172.066 154.974 172.302 151.899 171.856C148.824 171.411 145.998 170.304 143.779 168.676C141.56 167.049 140.047 164.974 139.432 162.713C138.818 160.453 139.129 158.109 140.326 155.979C141.523 153.849 143.553 152.028 146.158 150.746C148.763 149.465 151.826 148.781 154.96 148.781C159.152 148.781 163.173 150.004 166.142 152.181C169.11 154.358 170.784 157.312 170.796 160.395V160.395Z" fill="white"/>
</svg>
