<svg width="29" height="42" viewBox="0 0 29 42" fill="none" xmlns="http://www.w3.org/2000/svg">
<path d="M26.4802 18.3809C29.4862 12.5109 29.1552 6.45292 25.6102 2.91492C22.6952 -7.58171e-05 18.0002 -0.785076 13.0462 0.814924C9.75166 1.93295 6.76509 3.80777 4.32623 6.28892C1.68323 8.93192 0.235228 12.9439 0.0262276 18.2169C-0.0872788 21.2492 0.167923 24.2841 0.786228 27.2549C0.800192 27.3189 0.824153 27.3804 0.857229 27.4369C0.766691 28.0539 0.718911 28.6764 0.714229 29.2999C0.714229 34.4999 7.20123 38.8379 11.0642 40.9549C11.7705 41.3468 12.565 41.5525 13.3727 41.5525C14.1805 41.5525 14.9749 41.3468 15.6812 40.9549C19.5442 38.8379 26.0312 34.5009 26.0312 29.2999C26.0297 28.4917 25.9537 27.6852 25.8042 26.8909C26.3422 24.0878 26.5689 21.2338 26.4802 18.3809V18.3809ZM15.0522 39.8209C14.5361 40.1052 13.9565 40.2544 13.3672 40.2544C12.778 40.2544 12.1983 40.1052 11.6822 39.8209C8.77323 38.2229 2.00823 33.9989 2.00823 29.2989C2.00515 26.9665 2.71177 24.6883 4.03423 22.7669C5.87223 20.0979 12.2542 18.1829 13.3712 17.8669C14.4712 18.1789 20.7542 20.0289 22.6042 22.6329C22.8366 22.9563 23.0513 23.2922 23.2472 23.6389C23.3052 23.7489 23.3572 23.8599 23.4092 23.9699C23.5392 24.2099 23.6692 24.4569 23.7792 24.7039C23.8372 24.8469 23.8792 24.9899 23.9412 25.1329C24.0252 25.3599 24.1232 25.5869 24.1942 25.8279C24.2392 25.9639 24.2652 26.1069 24.3042 26.2499C24.3752 26.4969 24.4472 26.7429 24.4992 26.9969V26.9989C24.6484 27.7565 24.7245 28.5268 24.7262 29.2989C24.7272 33.9989 17.9622 38.2229 15.0522 39.8209Z" fill="white"/>
<path d="M12.9602 25.9659C12.9602 25.7935 12.8917 25.6282 12.7698 25.5063C12.6479 25.3844 12.4826 25.3159 12.3102 25.3159C12.1378 25.3159 11.9725 25.3844 11.8506 25.5063C11.7287 25.6282 11.6602 25.7935 11.6602 25.9659C11.6602 26.4949 10.3952 27.2659 8.41321 27.2659C6.43121 27.2659 5.16621 26.4969 5.16621 25.9659C5.16621 25.7935 5.09773 25.6282 4.97583 25.5063C4.85393 25.3844 4.6886 25.3159 4.51621 25.3159C4.34382 25.3159 4.17849 25.3844 4.05659 25.5063C3.93469 25.6282 3.86621 25.7935 3.86621 25.9659C3.86621 27.4469 5.82021 28.5659 8.41121 28.5659C11.0022 28.5659 12.9602 27.4469 12.9602 25.9659Z" fill="white"/>
<path d="M22.7002 25.3169C22.615 25.3169 22.5306 25.3337 22.4518 25.3663C22.3731 25.3989 22.3016 25.4467 22.2413 25.507C22.181 25.5673 22.1332 25.6388 22.1006 25.7176C22.068 25.7963 22.0512 25.8807 22.0512 25.9659C22.0512 26.4949 20.7862 27.2659 18.8042 27.2659C16.8222 27.2659 15.5572 26.4969 15.5572 25.9659C15.5572 25.7935 15.4887 25.6282 15.3668 25.5063C15.2449 25.3844 15.0796 25.3159 14.9072 25.3159C14.7348 25.3159 14.5695 25.3844 14.4476 25.5063C14.3257 25.6282 14.2572 25.7935 14.2572 25.9659C14.2572 27.4469 16.2112 28.5659 18.8022 28.5659C21.3932 28.5659 23.3472 27.4489 23.3472 25.9659C23.3472 25.7941 23.2791 25.6294 23.1578 25.5077C23.0365 25.3861 22.872 25.3175 22.7002 25.3169Z" fill="white"/>
<path d="M8.89319 33.1089H17.8372C17.2572 32.3409 15.5262 30.3149 13.3652 30.3149C11.2042 30.3149 9.47419 32.3409 8.89319 33.1089Z" fill="white"/>
<path d="M13.3642 37.2039C15.5272 37.2039 17.2592 35.1739 17.8372 34.4039H8.89124C9.47224 35.1749 11.2062 37.2039 13.3642 37.2039Z" fill="white"/>
</svg>
