<svg width="28" height="28" viewBox="0 0 28 28" fill="none" xmlns="http://www.w3.org/2000/svg">
<path d="M21 0H3C1.34315 0 0 1.34315 0 3V21C0 22.6569 1.34315 24 3 24H21C22.6569 24 24 22.6569 24 21V3C24 1.34315 22.6569 0 21 0Z" fill="white"/>
<path d="M21 0.5H3C1.61929 0.5 0.5 1.61929 0.5 3V21C0.5 22.3807 1.61929 23.5 3 23.5H21C22.3807 23.5 23.5 22.3807 23.5 21V3C23.5 1.61929 22.3807 0.5 21 0.5Z" stroke="white"/>
<path d="M24.9999 27.5H6.99994C5.79266 27.5 4.78248 26.6397 4.55017 25.5H20.4976C20.5512 25.5006 20.6048 25.5009 20.6573 25.5009C25.4168 25.5011 25.4988 23.06 25.4999 22.9561L25.4999 22.9533V22.9506V4.55023C26.6396 4.78254 27.4999 5.79272 27.4999 7V25C27.4999 26.3785 26.3784 27.5 24.9999 27.5Z" fill="white"/>
<path d="M25 27C26.1028 27 27 26.1028 27 25V7C27 6.26121 26.5974 5.61472 26 5.26841V22.9506V22.9561L25.9999 22.9617C25.9982 23.1184 25.9482 23.9391 25.1333 24.7046C24.2176 25.5648 22.712 26.0009 20.6579 26.0009C20.6578 26.0009 20.6575 26.0009 20.6573 26.0009C20.604 26.0009 20.5494 26.0006 20.4948 26H5.26841C5.61472 26.5974 6.26121 27 7 27H25ZM25 28H7C5.34315 28 4 26.6569 4 25H20.5005C20.5532 25.0006 20.6058 25.0009 20.6573 25.0009C24.9772 25.0011 25 22.9506 25 22.9506V4C26.6569 4 28 5.34315 28 7V25C28 26.6569 26.6569 28 25 28Z" fill="white"/>
</svg>
