<svg width="54" height="40" viewBox="0 0 54 40" fill="none" xmlns="http://www.w3.org/2000/svg">
<g clip-path="url(#clip0)">
<path d="M39.3304 16.6733H39.2948C39.3304 16.6733 37.2783 21.1199 37.2783 21.1199H39.7128C39.5683 19.5458 39.3304 16.6733 39.3304 16.6733Z" fill="#4392F9"/>
<path d="M47.8004 0H5.55818C4.08406 0 2.67032 0.585592 1.62796 1.62795C0.585596 2.67031 4.04957e-06 4.08406 4.04957e-06 5.55818V34.4529C-0.000878085 35.1826 0.142368 35.9052 0.421517 36.5793C0.700666 37.2534 1.11022 37.8658 1.62667 38.3812C2.14311 38.8966 2.75628 39.3049 3.43096 39.5827C4.10564 39.8605 4.82855 40.0023 5.55818 40H47.8004C48.5299 40.0021 49.2527 39.86 49.9272 39.5821C50.6018 39.3042 51.2148 38.8959 51.7312 38.3805C52.2476 37.8652 52.6572 37.253 52.9364 36.579C53.2157 35.905 53.3591 35.1825 53.3585 34.4529V5.5504C53.355 4.07808 52.768 2.66718 51.7262 1.62682C50.6844 0.586463 49.2727 0.00146662 47.8004 0ZM29.5895 20.7798C28.389 20.1306 27.2551 19.2635 27.2551 17.7984C27.2551 15.5307 29.2383 14.1456 31.6883 14.1456C32.6066 14.102 33.5204 14.2974 34.3407 14.7125L33.5892 16.7134C32.94 16.3782 32.2188 16.2064 31.4882 16.2132C30.3766 16.2132 29.7874 16.7779 29.7874 17.3982C29.7874 18.0474 30.4722 18.4476 31.4215 18.9812C32.0412 19.2067 32.5821 19.6072 32.9787 20.134C33.3752 20.6608 33.6105 21.2914 33.6559 21.9493C33.6559 24.4504 31.586 25.7355 29.0848 25.7355C27.9566 25.7961 26.8361 25.5174 25.8678 24.9351L26.6682 22.9675C27.4727 23.4365 28.387 23.6842 29.3183 23.6856C30.2521 23.6856 31.1036 23.2521 31.1036 22.3672C31.1058 21.7303 30.6211 21.3123 29.5895 20.7798ZM23.9691 25.5665H21.5657L23.7001 14.4502H26.1012L23.9691 25.5665ZM16.6323 25.5665H13.8477L12.7227 16.6734H10.9241C10.6292 16.6734 10.3465 16.5563 10.138 16.3478C9.92953 16.1394 9.81242 15.8566 9.81242 15.5618C9.81242 15.267 9.92953 14.9842 10.138 14.7757C10.3465 14.5673 10.6292 14.4502 10.9241 14.4502H14.9326C15.5507 21.1 15.5662 21.12 15.7019 23.3432H15.7352C16.5689 21.12 17.605 19.0434 19.7549 14.4502H22.4384L16.6323 25.5665ZM41.1594 25.5665L40.926 22.2316H37.6945L36.3605 25.5665H33.8037L39.273 14.4502H42.3589L43.6773 25.5665H41.1594Z" fill="#4392F9"/>
</g>
<defs>
<clipPath id="clip0">
<rect width="53.3541" height="40" fill="white"/>
</clipPath>
</defs>
</svg>
