<svg width="34" height="34" viewBox="0 0 34 34" fill="none" xmlns="http://www.w3.org/2000/svg">
<g clip-path="url(#clip0)">
<path d="M17.0221 0.730469C15.5198 0.732156 14.0794 1.32972 13.0171 2.39206C11.9547 3.4544 11.3572 4.89476 11.3555 6.39714V16.3138C11.3567 17.4406 11.8049 18.5209 12.6017 19.3176C13.3984 20.1144 14.4787 20.5625 15.6055 20.5638H18.4388C19.5656 20.5625 20.6458 20.1144 21.4426 19.3176C22.2394 18.5209 22.6875 17.4406 22.6888 16.3138V6.39714C22.6871 4.89476 22.0895 3.4544 21.0272 2.39206C19.9649 1.32972 18.5245 0.732156 17.0221 0.730469V0.730469Z" fill="white"/>
<path d="M24.0833 7.23686V15.5833C24.0816 17.0857 23.484 18.5261 22.4217 19.5884C21.3593 20.6507 19.919 21.2483 18.4166 21.25H15.5833C14.0809 21.2483 12.6405 20.6507 11.5782 19.5884C10.5158 18.5261 9.91827 17.0857 9.91659 15.5833V7.28273C8.09752 9.17261 7.08192 11.6941 7.08325 14.3172V34H26.9166V14.1667C26.9176 11.5745 25.9001 9.08574 24.0833 7.23686V7.23686ZM21.2499 31.1667H12.7499V29.75H21.2499V31.1667ZM21.2499 28.3333H12.7499V26.9167H21.2499V28.3333Z" fill="white"/>
<path d="M6.375 8.5C5.8116 8.49939 5.27145 8.27531 4.87307 7.87693C4.47469 7.47854 4.25061 6.9384 4.25 6.375C4.25 6.18714 4.17537 6.00697 4.04253 5.87413C3.9097 5.74129 3.72953 5.66666 3.54167 5.66666C3.3538 5.66666 3.17364 5.74129 3.0408 5.87413C2.90796 6.00697 2.83333 6.18714 2.83333 6.375C2.83272 6.9384 2.60864 7.47854 2.21026 7.87693C1.81188 8.27531 1.27173 8.49939 0.708333 8.5C0.520472 8.5 0.340304 8.57463 0.207466 8.70746C0.0746278 8.8403 0 9.02047 0 9.20833C0 9.39619 0.0746278 9.57636 0.207466 9.7092C0.340304 9.84204 0.520472 9.91666 0.708333 9.91666C1.27173 9.91727 1.81188 10.1414 2.21026 10.5397C2.60864 10.9381 2.83272 11.4783 2.83333 12.0417C2.83333 12.2295 2.90796 12.4097 3.0408 12.5425C3.17364 12.6754 3.3538 12.75 3.54167 12.75C3.72953 12.75 3.9097 12.6754 4.04253 12.5425C4.17537 12.4097 4.25 12.2295 4.25 12.0417C4.25061 11.4783 4.47469 10.9381 4.87307 10.5397C5.27145 10.1414 5.8116 9.91727 6.375 9.91666C6.56286 9.91666 6.74303 9.84204 6.87587 9.7092C7.00871 9.57636 7.08333 9.39619 7.08333 9.20833C7.08333 9.02047 7.00871 8.8403 6.87587 8.70746C6.74303 8.57463 6.56286 8.5 6.375 8.5Z" fill="white"/>
<path d="M32.4062 2.83333C31.8428 2.83272 31.3027 2.60865 30.9043 2.21026C30.5059 1.81188 30.2819 1.27173 30.2812 0.708333C30.2812 0.520472 30.2066 0.340304 30.0738 0.207466C29.9409 0.0746278 29.7608 0 29.5729 0C29.3851 0 29.2049 0.0746278 29.072 0.207466C28.9392 0.340304 28.8646 0.520472 28.8646 0.708333C28.864 1.27173 28.6399 1.81188 28.2415 2.21026C27.8431 2.60865 27.303 2.83272 26.7396 2.83333C26.5517 2.83333 26.3716 2.90796 26.2387 3.0408C26.1059 3.17364 26.0312 3.35381 26.0312 3.54167C26.0312 3.72953 26.1059 3.9097 26.2387 4.04253C26.3716 4.17537 26.5517 4.25 26.7396 4.25C27.303 4.25061 27.8431 4.47469 28.2415 4.87307C28.6399 5.27145 28.864 5.8116 28.8646 6.375C28.8646 6.56286 28.9392 6.74303 29.072 6.87587C29.2049 7.00871 29.3851 7.08333 29.5729 7.08333C29.7608 7.08333 29.9409 7.00871 30.0738 6.87587C30.2066 6.74303 30.2812 6.56286 30.2812 6.375C30.2819 5.8116 30.5059 5.27145 30.9043 4.87307C31.3027 4.47469 31.8428 4.25061 32.4062 4.25C32.5941 4.25 32.7743 4.17537 32.9071 4.04253C33.04 3.9097 33.1146 3.72953 33.1146 3.54167C33.1146 3.35381 33.04 3.17364 32.9071 3.0408C32.7743 2.90796 32.5941 2.83333 32.4062 2.83333V2.83333Z" fill="white"/>
</g>
<defs>
<clipPath id="clip0">
<rect width="34" height="34" fill="white"/>
</clipPath>
</defs>
</svg>
