<svg width="40" height="40" viewBox="0 0 40 40" fill="none" xmlns="http://www.w3.org/2000/svg">
<path d="M31.9609 36.6163L29.375 37.4257L27.1406 38.1249H15.4055L13.125 30.839L5.625 6.8749L13.125 4.52725L21.1328 2.021L29.375 28.3546L31.9609 36.6163Z" fill="#379A6B"/>
<path d="M26.4795 33.7476L27.0395 35.537L19.882 37.7772L19.3219 35.9878L17.5325 36.5478L9.31836 10.3032L11.1077 9.74323L10.5477 7.95378L17.7053 5.71362L18.2654 7.503L20.0548 6.94292L28.2689 33.1875L26.4795 33.7476Z" fill="#44C086"/>
<path d="M13.125 1.875H29.375V38.125H13.125V1.875Z" fill="#3BA673"/>
<path d="M25 33.75V35.625H17.5V33.75H15.625V6.25H17.5V4.375H25V6.25H26.875V33.75H25Z" fill="#44C086"/>
<path d="M21.25 23.125C22.9759 23.125 24.375 21.7259 24.375 20C24.375 18.2741 22.9759 16.875 21.25 16.875C19.5241 16.875 18.125 18.2741 18.125 20C18.125 21.7259 19.5241 23.125 21.25 23.125Z" fill="#3BA673"/>
<path d="M34.375 23.125V38.125H30C28.3424 38.125 26.7527 37.4665 25.5806 36.2944C24.4085 35.1223 23.75 33.5326 23.75 31.875H23.7625L19.7078 25.8746C19.3366 25.3252 19.1989 24.6509 19.3249 23.9999C19.4509 23.349 19.8303 22.7747 20.3797 22.4035C20.9291 22.0323 21.6034 21.8946 22.2544 22.0206C22.9053 22.1466 23.4796 22.526 23.8508 23.0754L27.5 28.125H29.375V13.125L34.0809 21.9485C34.274 22.3106 34.375 22.7146 34.375 23.125V23.125Z" fill="#F5CBAA"/>
</svg>
