<svg width="26" height="26" viewBox="0 0 26 26" fill="none" xmlns="http://www.w3.org/2000/svg">
<g clip-path="url(#clip0)">
<path d="M24.027 4.829C23.8962 3.11307 23.195 1.49025 22.035 0.218999C21.9823 0.150707 21.9145 0.0954205 21.837 0.0573821C21.7595 0.0193437 21.6744 -0.000434875 21.588 -0.000434875C21.5017 -0.000434875 21.4166 0.0193437 21.3391 0.0573821C21.2616 0.0954205 21.1938 0.150707 21.141 0.218999C19.9811 1.49025 19.2799 3.11307 19.149 4.829V6.446H24.026L24.027 4.829Z" fill="white"/>
<path d="M24.7911 17.237H18.3861C18.2707 17.2467 18.1638 17.3017 18.0888 17.3899C18.0139 17.4782 17.9769 17.5926 17.9861 17.708V24.179C17.9663 24.4246 18.044 24.6681 18.2023 24.8569C18.3606 25.0457 18.5868 25.1646 18.8321 25.188H24.3321C24.5773 25.1646 24.8036 25.0457 24.9619 24.8569C25.1202 24.6681 25.1978 24.4246 25.1781 24.179V17.708C25.1874 17.5946 25.1522 17.482 25.0799 17.3941C25.0077 17.3062 24.9041 17.2499 24.7911 17.237V17.237ZM20.4321 23.503C20.439 23.5923 20.4107 23.6808 20.3531 23.7494C20.2955 23.8181 20.2132 23.8614 20.1241 23.87H19.8011C19.7119 23.8614 19.6296 23.8181 19.572 23.7494C19.5144 23.6808 19.4861 23.5923 19.4931 23.503V18.92C19.4861 18.8307 19.5144 18.7422 19.572 18.6736C19.6296 18.6049 19.7119 18.5616 19.8011 18.553H20.1241C20.2132 18.5616 20.2955 18.6049 20.3531 18.6736C20.4107 18.7422 20.439 18.8307 20.4321 18.92V23.503Z" fill="white"/>
<path d="M24.3889 7.652C24.3948 7.57891 24.3716 7.50646 24.3245 7.45032C24.2773 7.39418 24.2099 7.35886 24.137 7.352H19.037C18.964 7.35886 18.8966 7.39418 18.8494 7.45032C18.8023 7.50646 18.7791 7.57891 18.7849 7.652V16.078H24.385L24.3889 7.652ZM20.9609 14.461C20.9676 14.5465 20.9405 14.6312 20.8853 14.6969C20.8301 14.7625 20.7513 14.8039 20.6659 14.812H20.316C20.2306 14.8039 20.1518 14.7625 20.0966 14.6969C20.0414 14.6312 20.0143 14.5465 20.0209 14.461V8.968C20.0143 8.88249 20.0414 8.79779 20.0966 8.73213C20.1518 8.66648 20.2306 8.62513 20.316 8.617H20.6659C20.7513 8.62513 20.8301 8.66648 20.8853 8.73213C20.9405 8.79779 20.9676 8.88249 20.9609 8.968V14.461Z" fill="white"/>
<path d="M5.472 16.511H1.565C1.49162 16.511 1.41899 16.5257 1.35143 16.5543C1.28386 16.5829 1.22274 16.6248 1.1717 16.6775C1.12067 16.7302 1.08076 16.7927 1.05435 16.8611C1.02795 16.9296 1.01558 17.0027 1.018 17.076L1.248 24.22C1.25656 24.4795 1.36569 24.7254 1.55231 24.9059C1.73892 25.0863 1.9884 25.1871 2.248 25.187H4.791C5.05059 25.1871 5.30007 25.0863 5.48669 24.9059C5.6733 24.7254 5.78243 24.4795 5.791 24.22L6.021 17.076C6.02342 17.0025 6.01099 16.9293 5.98446 16.8607C5.95793 16.7921 5.91784 16.7295 5.86659 16.6768C5.81534 16.6241 5.75399 16.5822 5.68619 16.5537C5.61839 16.5252 5.54554 16.5107 5.472 16.511V16.511Z" fill="white"/>
<path d="M6.618 5.527H4.924C4.908 5 4.878 4.5 4.836 4.023H6.348C6.40315 4.023 6.45777 4.01214 6.50873 3.99103C6.55968 3.96992 6.60598 3.93898 6.64499 3.89998C6.68399 3.86098 6.71492 3.81468 6.73603 3.76373C6.75714 3.71277 6.768 3.65815 6.768 3.603C6.768 3.54784 6.75714 3.49323 6.73603 3.44227C6.71492 3.39131 6.68399 3.34501 6.64499 3.30601C6.60598 3.26701 6.55968 3.23608 6.50873 3.21497C6.45777 3.19386 6.40315 3.183 6.348 3.183H4.748C4.68557 2.67856 4.59611 2.17784 4.48 1.683H5.957C6.06839 1.683 6.17522 1.63875 6.25398 1.55998C6.33275 1.48122 6.377 1.37439 6.377 1.263C6.377 1.15161 6.33275 1.04478 6.25398 0.966014C6.17522 0.887249 6.06839 0.842999 5.957 0.842999H4.222C4.015 0.309999 3.775 0.00299835 3.522 0.00299835C3.269 0.00299835 3.022 0.308999 2.822 0.842999H1.084C0.972609 0.842999 0.86578 0.887249 0.787015 0.966014C0.70825 1.04478 0.664 1.15161 0.664 1.263C0.664 1.37439 0.70825 1.48122 0.787015 1.55998C0.86578 1.63875 0.972609 1.683 1.084 1.683H2.561C2.44488 2.17784 2.35542 2.67856 2.293 3.183H0.69C0.634845 3.183 0.58023 3.19386 0.529273 3.21497C0.478316 3.23608 0.432016 3.26701 0.393015 3.30601C0.354014 3.34501 0.323077 3.39131 0.30197 3.44227C0.280864 3.49323 0.27 3.54784 0.27 3.603C0.27 3.65815 0.280864 3.71277 0.30197 3.76373C0.323077 3.81468 0.354014 3.86098 0.393015 3.89998C0.432016 3.93898 0.478316 3.96992 0.529273 3.99103C0.58023 4.01214 0.634845 4.023 0.69 4.023H2.2C2.158 4.499 2.128 5.003 2.113 5.523H0.42C0.308609 5.523 0.20178 5.56725 0.123015 5.64601C0.0442496 5.72478 0 5.83161 0 5.943C0 6.05439 0.0442496 6.16122 0.123015 6.23998C0.20178 6.31875 0.308609 6.363 0.42 6.363H2.1V6.375C2.1 6.889 2.114 7.389 2.139 7.868H0.69C0.578609 7.868 0.471781 7.91225 0.393015 7.99101C0.31425 8.06978 0.27 8.17661 0.27 8.288C0.27 8.39939 0.31425 8.50622 0.393015 8.58498C0.471781 8.66375 0.578609 8.708 0.69 8.708H2.2C2.247 9.249 2.31 9.755 2.387 10.208H1.087C0.975609 10.208 0.868781 10.2522 0.790015 10.331C0.71125 10.4098 0.667 10.5166 0.667 10.628C0.667 10.7394 0.71125 10.8462 0.790015 10.925C0.868781 11.0037 0.975609 11.048 1.087 11.048H2.556C2.63076 11.3747 2.73107 11.695 2.856 12.006V15.386H4.184V12.006C4.30893 11.695 4.40924 11.3747 4.484 11.048H5.955C6.06639 11.048 6.17322 11.0037 6.25198 10.925C6.33075 10.8462 6.375 10.7394 6.375 10.628C6.375 10.5166 6.33075 10.4098 6.25198 10.331C6.17322 10.2522 6.06639 10.208 5.955 10.208H4.655C4.732 9.751 4.795 9.245 4.842 8.708H6.352C6.40716 8.708 6.46177 8.69713 6.51273 8.67603C6.56368 8.65492 6.60998 8.62398 6.64898 8.58498C6.68799 8.54598 6.71892 8.49968 6.74003 8.44872C6.76114 8.39777 6.772 8.34315 6.772 8.288C6.772 8.23284 6.76114 8.17823 6.74003 8.12727C6.71892 8.07631 6.68799 8.03001 6.64898 7.99101C6.60998 7.95201 6.56368 7.92108 6.51273 7.89997C6.46177 7.87886 6.40716 7.868 6.352 7.868H4.9C4.926 7.389 4.939 6.89 4.939 6.375V6.363H6.621C6.73239 6.363 6.83922 6.31875 6.91798 6.23998C6.99675 6.16122 7.041 6.05439 7.041 5.943C7.041 5.83161 6.99675 5.72478 6.91798 5.64601C6.83922 5.56725 6.73239 5.523 6.621 5.523L6.618 5.527Z" fill="white"/>
<path d="M14.74 15.112H10.448C10.3996 15.112 10.3517 15.1217 10.3071 15.1405C10.2625 15.1593 10.2221 15.1869 10.1884 15.2215C10.1546 15.2562 10.1282 15.2973 10.1106 15.3424C10.093 15.3875 10.0846 15.4356 10.086 15.484L10.329 24.216C10.3365 24.4762 10.4452 24.7231 10.6319 24.9044C10.8186 25.0857 11.0687 25.1871 11.329 25.187H13.864C14.1242 25.1871 14.3743 25.0857 14.561 24.9044C14.7477 24.7231 14.8564 24.4762 14.864 24.216L15.107 15.484C15.1083 15.4352 15.0998 15.3866 15.0819 15.3412C15.064 15.2958 15.0371 15.2545 15.0028 15.2197C14.9685 15.185 14.9276 15.1575 14.8824 15.139C14.8372 15.1205 14.7888 15.1113 14.74 15.112V15.112Z" fill="white"/>
<path d="M12.036 13.993H13.151V3.139L13.994 0H11.194L12.036 3.139V13.993Z" fill="white"/>
</g>
<defs>
<clipPath id="clip0">
<rect width="25.19" height="25.187" fill="white"/>
</clipPath>
</defs>
</svg>
