<svg width="37" height="40" viewBox="0 0 37 40" fill="none" xmlns="http://www.w3.org/2000/svg">
<path d="M35.615 33.6783C30.305 34.9603 26.597 32.6713 25.956 27.3153C25.7437 24.5273 25.7601 21.7266 26.005 18.9413C26.142 16.3783 27.058 13.9063 26.554 11.2513C26.1776 8.73924 25.0762 6.39167 23.385 4.4965C21.6937 2.60134 19.4861 1.24097 17.033 0.582266C15.9442 0.348499 14.8421 0.181521 13.733 0.082266C11.2859 -0.210702 8.80918 0.2833 6.6618 1.49265C4.51442 2.70201 2.80801 4.56385 1.78996 6.80827C-0.0229654 10.6647 -0.474896 15.0218 0.507963 19.1683C1.10796 21.6863 2.10796 24.0683 2.84296 26.5383C3.98696 30.4293 4.81096 34.3203 2.34296 38.0743C2.29696 38.1203 2.34296 38.2113 2.38896 38.3493C3.9162 38.3152 5.37957 37.7299 6.50896 36.7013C8.21776 35.1421 9.33399 33.0393 9.66796 30.7503C9.90382 29.7796 9.91509 28.768 9.7009 27.7924C9.48671 26.8167 9.05271 25.9028 8.43196 25.1203C7.65396 24.1133 7.05896 22.9203 6.37196 21.8203C5.5711 20.5526 5.20043 19.0604 5.31496 17.5653C5.35613 17.1922 5.43281 16.8238 5.54396 16.4653C6.14029 14.8356 6.62966 13.1687 7.00896 11.4753C7.14596 8.72827 8.97696 7.53827 11.309 8.82027C14.609 10.6513 17.763 12.7113 20.876 14.8203C21.4825 15.2012 21.9654 15.75 22.2661 16.4C22.5668 17.0501 22.6723 17.7734 22.57 18.4823C22.4739 19.7721 22.3069 21.0557 22.07 22.3273C21.521 24.5273 20.651 26.5383 18.27 27.4543C18.1426 27.5507 18.0391 27.6752 17.9676 27.8181C17.8962 27.961 17.8587 28.1185 17.858 28.2783C17.9561 30.7323 18.5805 33.1366 19.689 35.3283C21.428 38.6703 24.267 39.9973 27.929 39.0823C30.9582 38.2344 33.7585 36.717 36.123 34.6423C36.2195 34.561 36.2855 34.4493 36.31 34.3256C36.3345 34.2018 36.3162 34.0734 36.258 33.9615C36.1997 33.8495 36.1051 33.7608 35.9897 33.7099C35.8742 33.6589 35.7449 33.6488 35.623 33.6813L35.615 33.6783Z" fill="white"/>
</svg>
