<svg width="37" height="37" viewBox="0 0 37 37" fill="none" xmlns="http://www.w3.org/2000/svg">
<path d="M2.617 24.864C4.06233 24.864 5.234 23.6923 5.234 22.247C5.234 20.8017 4.06233 19.63 2.617 19.63C1.17167 19.63 0 20.8017 0 22.247C0 23.6923 1.17167 24.864 2.617 24.864Z" fill="white"/>
<path d="M1.98497 29.904C1.32 30.4504 0.871508 31.2158 0.719971 32.063H18.911C18.8252 31.5882 18.6456 31.1352 18.3827 30.7306C18.1197 30.326 17.7787 29.978 17.3796 29.7068C16.9805 29.4356 16.5313 29.2468 16.0583 29.1514C15.5853 29.0559 15.098 29.0558 14.625 29.151L10.785 29.919C10.1449 30.0465 9.48601 30.0465 8.84597 29.919L5.00497 29.151C4.47726 29.0445 3.93245 29.0568 3.41009 29.1871C2.88773 29.3173 2.40092 29.5622 1.98497 29.904V29.904Z" fill="white"/>
<path d="M26.828 1.309V2.617H24.865V3.926H30.1V0.654C30.0997 0.480456 30.0306 0.314112 29.9078 0.191492C29.785 0.0688715 29.6185 -2.02253e-07 29.445 0H21.593C21.4196 0.000264486 21.2534 0.069253 21.1308 0.191844C21.0082 0.314436 20.9392 0.480629 20.939 0.654V1.308H26.828V1.309Z" fill="white"/>
<path d="M11.891 22.248H17.661L17.652 21.627C17.604 18.3517 18.0493 15.0878 18.973 11.945C18.1922 11.4005 17.261 11.113 16.3091 11.1223C15.3572 11.1316 14.4318 11.4374 13.6618 11.9971C12.8918 12.5568 12.3153 13.3426 12.0126 14.2452C11.71 15.1478 11.6961 16.1222 11.973 17.033C11.907 17.033 11.843 17.013 11.773 17.013C11.408 17.0136 11.0471 17.0906 10.7135 17.239C10.38 17.3874 10.0811 17.6039 9.83628 17.8747C9.59141 18.1454 9.4059 18.4644 9.29168 18.8112C9.17745 19.1579 9.13704 19.5247 9.17303 19.888C9.2551 20.5474 9.57806 21.1532 10.0798 21.5888C10.5815 22.0245 11.2266 22.2593 11.891 22.248V22.248Z" fill="white"/>
<path d="M5.88903 14.395C6.97316 14.395 7.85203 13.5161 7.85203 12.432C7.85203 11.3479 6.97316 10.469 5.88903 10.469C4.80489 10.469 3.92603 11.3479 3.92603 12.432C3.92603 13.5161 4.80489 14.395 5.88903 14.395Z" fill="white"/>
<path d="M4.57994 7.198C5.66408 7.198 6.54294 6.31914 6.54294 5.235C6.54294 4.15087 5.66408 3.272 4.57994 3.272C3.49581 3.272 2.61694 4.15087 2.61694 5.235C2.61694 6.31914 3.49581 7.198 4.57994 7.198Z" fill="white"/>
<path d="M33.5011 11.82C32.5977 10.7879 31.4359 10.0148 30.1351 9.58C29.7446 9.45066 29.4047 9.20168 29.1637 8.86838C28.9226 8.53507 28.7926 8.13434 28.7921 7.723V4.58H26.1741V7.72C26.1738 8.1319 26.0438 8.53325 25.8025 8.86712C25.5613 9.20098 25.221 9.4504 24.8301 9.58C23.5955 9.99119 22.4855 10.7089 21.6039 11.6659C20.7222 12.6229 20.0978 13.7879 19.7891 15.052H35.1751C34.8817 13.857 34.3078 12.7491 33.5011 11.82V11.82Z" fill="white"/>
<path d="M27.482 28.137C28.6178 28.1361 29.7128 27.7133 30.5544 26.9505C31.3959 26.1877 31.924 25.1395 32.0362 24.0092C32.1483 22.879 31.8365 21.7474 31.1613 20.8341C30.486 19.9209 29.4955 19.2911 28.382 19.067C28.5112 19.8177 28.3941 20.5901 28.0483 21.2688C27.7024 21.9476 27.1463 22.4963 26.463 22.833L25.881 21.664C26.3555 21.4257 26.7315 21.0287 26.9437 20.5421C27.156 20.0555 27.1911 19.5098 27.043 19C25.8715 19.1126 24.7883 19.6718 24.0181 20.5617C23.2479 21.4515 22.8498 22.6037 22.9064 23.7793C22.963 24.9548 23.47 26.0634 24.3221 26.8752C25.1742 27.6869 26.3062 28.1395 27.483 28.139L27.482 28.137ZM29.772 24.211C29.953 24.211 30.099 24.504 30.099 24.865C30.099 25.226 29.952 25.519 29.772 25.519C29.592 25.519 29.445 25.226 29.445 24.865C29.445 24.504 29.592 24.21 29.773 24.21L29.772 24.211ZM25.192 24.211C25.373 24.211 25.519 24.504 25.519 24.865C25.519 25.226 25.372 25.519 25.192 25.519C25.012 25.519 24.865 25.226 24.865 24.865C24.865 24.504 25.012 24.21 25.192 24.21V24.211Z" fill="white"/>
<path d="M36.041 32.93L35.923 32.064H22.248V30.759H35.748L35.348 27.828C34.9031 24.5621 34.9031 21.2509 35.348 17.985C35.348 17.978 35.348 17.972 35.348 17.967C35.4182 17.4367 35.4337 16.9005 35.394 16.367H19.571C19.5307 16.9005 19.5461 17.4367 19.617 17.967C19.617 17.974 19.617 17.979 19.617 17.985C20.0619 21.2509 20.0619 24.5621 19.617 27.828L18.917 32.934C18.8983 33.0806 18.8896 33.2282 18.891 33.376H0V36.648H19.63V35.434C19.654 35.463 19.674 35.494 19.699 35.523C20.0063 35.8748 20.3854 36.1568 20.8108 36.35C21.2361 36.5431 21.6978 36.643 22.165 36.643H32.8C33.2671 36.6432 33.7288 36.5433 34.154 36.3501C34.5793 36.1569 34.9582 35.8749 35.2654 35.5231C35.5725 35.1712 35.8007 34.7576 35.9347 34.3102C36.0687 33.8627 36.1053 33.3918 36.042 32.929L36.041 32.93ZM21.593 23.559C21.593 22.3943 21.9384 21.2557 22.5855 20.2872C23.2326 19.3188 24.1523 18.564 25.2284 18.1183C26.3045 17.6725 27.4885 17.5559 28.6309 17.7832C29.7732 18.0104 30.8226 18.5713 31.6462 19.3948C32.4697 20.2184 33.0306 21.2678 33.2578 22.4101C33.4851 23.5525 33.3685 24.7365 32.9227 25.8126C32.477 26.8887 31.7222 27.8084 30.7538 28.4555C29.7853 29.1026 28.6467 29.448 27.482 29.448C25.921 29.4451 24.4248 28.8237 23.3211 27.7199C22.2173 26.6162 21.5959 25.12 21.593 23.559V23.559Z" fill="white"/>
</svg>
